<ttFont>
          <CharString index="0">
            4 callsubr
            285 -184.02000427246094 148.99000549316406 -227 -4 rrcurveto
            -333.99000549316406 -6 -175 -246 -332 vvcurveto
            -370 181 -217.97999572753906 323.99000549316406 136.99000549316406 173.02000427246094 40.97999572753906 61 75 vhcurveto
            -42 227 callsubr
            -55.99000549316406 -152 -29 -76 hhcurveto
            -186 -149 -36 callsubr
            268 -12.990005493164062 hvcurveto
            7 0 6 -1 7 vhcurveto
            703 hlineto
            11 51 0 67.02000427246094 86 vvcurveto
            -205.99000549316406 -58 rmoveto
            -502 hlineto
            245.99000549316406 0 callgsubr
            113.00999450683594 -45 callsubr
            136.99000549316406 hhcurveto
            200 36 -169 -163 -10 hvcurveto
            endchar
          </CharString>
          <CharString index="1">
            276.99000549316406 -13 rlineto
            -377 vlineto
            -38.99000549316406 -58 -134 -18 -109 hhcurveto
            -321 -150 274 351.99000549316406 368 194.99000549316406 216 265.02000427246094 -3 callsubr
            108.99000549316406 -36 -49.99000549316406 97.02000427246094 hvcurveto
            10 199.99000549316406 rlineto
            26 -133 -65 34 -228 hhcurveto
            -392.99000549316406 -312.02000427246094 -263 -522 -439.99000549316406 255.02000427246094 -328.99000549316406 449.99000549316406 309 116 104.97999572753906 5 88 hvcurveto
            667.0200042724609 return
          </CharString>
          <CharString index="2">
            -33 -62 callsubr
            -117.99000549316406 -47 -86 hhcurveto
            -150.02000427246094 -59 28 282.00999450683594 hvcurveto
            665 -220 -666.0099945068359 vlineto
            -293 49 -196.97000122070312 290 125.00999450683594 150 -18 callsubr
            57 94 vhcurveto
            -28 175 callgsubr
            41 -7.9900054931640625 69 vhcurveto
            84.99000549316406 1155.990005493164 -220 return
          </CharString>
          <CharString index="3">
            rmoveto
            -35 53.99000549316406 -55 callgsubr
            -51.970001220703125 200 hhcurveto
            298 209 131.99000549316406 281.99000549316406 238 -225 125.00999450683594 -196.02000427246094 100.99000549316406 hvcurveto
            -218.99000549316406 113.00999450683594 -35 callsubr
            53 149 vvcurveto
            131 146 54.99000549316406 147 callgsubr
            163.99000549316406 78.00999450683594 -37.99000549316406 -42 70 vhcurveto
            45 176 rlineto
            34 -53 -117 45 -184 hhcurveto
            -246.99000549316406 -259.02000427246094 -99 -292 -220 192 -146 189 -92 hvcurveto
            214 -104 123 -63 -150 vvcurveto
            -150.02000427246094 -112 -18 callgsubr
            -191 -139 -145 47 46 -75.02000427246094 vhcurveto
            -52.97999572753906 -183 rlineto
            endchar
          </CharString>
          <CharString index="4">
            868.9900054931641 vlineto
            91.00999450683594 66 114 36.99000549316406 75 3 rrcurveto
            178.02000427246094 10 35 -83.99000549316406 -190.02000427246094 vvcurveto
            -710.9799957275391 220 709.9799957275391 vlineto
            334 -93 119.00999450683594 -246 -6 vhcurveto
            -149 -4.0200042724609375 -163 -76.99000549316406 -85.00999450683594 -58 rrcurveto
            return
          </CharString>
          <CharString index="5">
            -206.99000549316406 hlineto
            0 callsubr
            -35 24 86 45 27 44 37 24.990005493164062 123 callgsubr
            39 42 -3.9900054931640625 43 hhcurveto
            258.99000549316406 200 137.99000549316406 252.99000549316406 78.00999450683594 -19 66 -32 53.99000549316406 hvcurveto
            209 hlineto
            return
          </CharString>
          <CharString index="6">
            3.0200042724609375 88 callgsubr
            76 callgsubr
            -48 -64 13 -74 hhcurveto
            -345 -226 43 callgsubr
            -368.99000549316406 -370.00999450683594 210 -173.97000122070312 239 173 90.99000549316406 74.97000122070312 54 53 hvcurveto
            -41 175 callgsubr
            45 -7.9900054931640625 68.00999450683594 vhcurveto
            42 callsubr
            return
          </CharString>
          <CharString index="7">
            rmoveto
            -374 -330 -281 -504 -461 279 -307.9700012207031 430 189 106.99000549316406 44.99000549316406 35 88 hvcurveto
            -1 188.99000549316406 rlineto
            -47 -52.97999572753906 -165 -46 -156 hhcurveto
            -310 -187 252 356 360 189 228.99000549316406 309 228.99000549316406 94 -59 61 callsubr
            29 hvcurveto
            32 198 rlineto
            13 -54 69 callgsubr
            43.99000549316406 -231 hhcurveto
            endchar
          </CharString>
          <CharString index="8">
            -15.990005493164062 return
          </CharString>
          <CharString index="9">
            24 callgsubr
            282.00999450683594 166 -282.00999450683594 83 callgsubr
            42 -6 49 callgsubr
            40.97999572753906 -75 callsubr
            -229.99000549316406 -101.99000549316406 -341 hvcurveto
            -99 vlineto
            -173 177 callgsubr
            173 vlineto
            return
          </CharString>
          <CharString index="10">
            rmoveto
            -78 callgsubr
            236 callgsubr
            -726 523.0200042724609 479.00999450683594 172 -479.00999450683594 479.99000549316406 653 172 -876.0099945068359 vlineto
            endchar
          </CharString>
          <CharString index="11">
            927 134 callgsubr
            150.99000549316406 302.97999572753906 -260.99000549316406 220.00999450683594 441.00001525878906 -95 callsubr
            590.9999847412109 220.00999450683594 hintmask 11010111
            -94 callgsubr
            216 callsubr
            hmoveto
            -973.9900054931641 220.02000427246094 973.9900054931641 281.99000549316406 166 -281.99000549316406 149 vlineto
            145 68 115 callgsubr
            -21 -59 13.990005493164062 -62.02000427246094 hhcurveto
            -182.99000549316406 -230 -101.99000549316406 -341 hvcurveto
            -99 vlineto
            -173 177 callgsubr
            173 vlineto
            hintmask 11101011
            -1513.990005493164 508 rmoveto
            -83 65.99000549316406 -52 75 83 79 -4 callgsubr
            75 callsubr
            -82.99000549316406 -69 -87 vhcurveto
            hintmask 11010111
            -72 callsubr
          </CharString>
          <CharString index="12">
            219.99000549316406 return
          </CharString>
          <CharString index="13">
            rmoveto
            285.97999572753906 3 140 152 181.99000549316406 hhcurveto
            97.00999450683594 66.99000549316406 -13.990005493164062 -36 41 hvcurveto
            -697 vlineto
            -38.02000427246094 -47 -88 -53.99000549316406 -109 hhcurveto
            -185 -104 127 274 93 callsubr
          </CharString>
          <CharString index="14">
            -80 50 callsubr
            -101.00999450683594 22 -107.99000549316406 -77 callsubr
            rrcurveto
            -253.99000549316406 -5 -196.02000427246094 -123 -266 vvcurveto
            -142 77 -113.00999450683594 119.99000549316406 -64 vhcurveto
            return
          </CharString>
          <CharString index="15">
            -55 callsubr
            36.99000549316406 -20.009994506835938 37 -12 callsubr
            37.99000549316406 rrcurveto
            -828 694.0099945068359 rmoveto
            549.9900054931641 vlineto
            13 64 82 5 -46 callgsubr
            hhcurveto
            234 89.00999450683594 -86 -188.99000549316406 -211 -120 -88 -197.02000427246094 -53.99000549316406 -137.02000427246094 1 5 224 callgsubr
            return
          </CharString>
          <CharString index="16">
            0 -83 callgsubr
            return
          </CharString>
          <CharString index="17">
            230 52 -70 -123 -114 -158 -59 -178 -194 -75 72 139 84.99000549316406 36 44 36.99000549316406 32.99000549316406 hvcurveto
            return
          </CharString>
          <CharString index="18">
            -84 -516.9900054931641 150.99000549316406 366 -55 callgsubr
            211.00999450683594 -11 callgsubr
            442 175 -141 149 return
          </CharString>
          <CharString index="19">
            -695 0 58 callsubr
            hstemhm
            150.99000549316406 302.97999572753906 -260.99000549316406 234 callgsubr
            hintmask 11110000
            151 191 callsubr
            79 -4 callgsubr
            75 callsubr
            -82.99000549316406 -69 -87 vhcurveto
            hintmask 11101000
            -72 callsubr
          </CharString>
          <CharString index="20">
            106 0 -82 callsubr
            return
          </CharString>
          <CharString index="21">
            171 -15 callgsubr
            43 676.9900054931641 148.99000549316406 508.00999450683594 102 callgsubr
            hintmask 10110110
            665.9900054931641 1537.990005493164 rmoveto
            hintmask 01101110
            74 callsubr
            -112 -653 -128 -149 128 -719.9900054931641 85.00999450683594 hlineto
            109 153 -14 -77 callsubr
            100.99000549316406 hvcurveto
            hintmask 10110110
            -89 callgsubr
            11 -1389 rmoveto
            -86 -1 -106 5 -66 callgsubr
            15.009994506835938 rrcurveto
            552 394 149 -394 184 callgsubr
            vlineto
            8.990005493164062 43.99000549316406 70 7 82 hhcurveto
            357.99000549316406 184 -156 -450 -437 -200 -179 -279 -6 hvcurveto
            endchar
          </CharString>
          <CharString index="22">
            503 0 50 callgsubr
            1229 -17 callgsubr
            47 callsubr
            -219.52000427246094 561.5200042724609 279 580.9900054931641 -264.00001525878906 223 hintmask 11100100
            1262 50 callgsubr
            rmoveto
            169.99000549316406 138 147 265.00999450683594 302 vvcurveto
            448 -293.99000549316406 238 -391 -344 -356 -212 -473.99000549316406 -309 182 -272 159 callgsubr
            -124.00999450683594 vhcurveto
            hintmask 11010100
            -333 hlineto
            1 67 callsubr
            rlineto
            561.0099945068359 151 hlineto
            hintmask 11100100
            -154 106.99000549316406 -187.99000549316406 261 332 vvcurveto
            392.00999450683594 246.99000549316406 140 230 217.99000549316406 243 -144 -388.02000427246094 -332 -151 -261 -165.99000549316406 -106.99000549316406 vhcurveto
            hintmask 11101000
            -151 581 50 callgsubr
            vlineto
            hintmask 11100100
            -357.99000549316406 hlineto
            endchar
          </CharString>
          <CharString index="23">
            -86 -58.97999572753906 -52 -86.02000427246094 -2 -75 -37 callgsubr
            -60 16 -67.99000549316406 72.99000549316406 -42 rrcurveto
            return
          </CharString>
          <CharString index="24">
            59 -18 -52 callgsubr
            -173.97000122070312 -55 callgsubr
            942.0299987792969 32 callsubr
            209.97999572753906 219 464 -95 callsubr
            hintmask 00000000
            hintmask 10111000
            1224.990005493164 185 rmoveto
            -22.020004272460938 -37 -28 -5 -13 hhcurveto
            -22 -12 48 callsubr
            61.99000549316406 hvcurveto
            906.0200042724609 -220 vlineto
            hintmask 01111000
            72 callgsubr
            -37.99000549316406 -52 -85 -50 -81.02000427246094 hhcurveto
            -165.99000549316406 -80 59.99000549316406 182 hvcurveto
            741 -219 -1510.990005493164 205 vlineto
            35 callgsubr
            458.97999572753906 rlineto
            -70 callgsubr
            60.99000549316406 84 -24.979995727539062 127 hhcurveto
            145 75 82.97999572753906 53 48 hvcurveto
            -103 -5 53 -35 -30 callgsubr
            hhcurveto
            108.02000427246094 90.99000549316406 -36 callsubr
            21.009994506835938 48 callsubr
            hvcurveto
            hintmask 10111000
            -31 98 rlineto
            endchar
          </CharString>
          <CharString index="25">
            43 341.97999572753906 166 751.010009765625 235.99000549316406 -40.96002197265625 -102 callgsubr
            return
          </CharString>
          <CharString index="26">
            -75 callgsubr
            523.010009765625 -31 callsubr
            479.99998474121094 172 return
          </CharString>
          <CharString index="27">
            -178 96 callgsubr
            371.99000549316406 146 332 155.99000549316406 return
          </CharString>
          <CharString index="28">
            193.99000549316406 return
          </CharString>
          <CharString index="29">
            rmoveto
            182 callsubr
            -117 169 26.009994506835938 234 130 callsubr
            46 261 rlinecurve
            27 146 -7.9900054931640625 181.99000549316406 199 vvcurveto
            909 -226.02000427246094 12 callgsubr
            -43 -156.97999572753906 -128.97999572753906 -86.02000427246094 -106 -37.99000549316406 rrcurveto
            endchar
          </CharString>
          <CharString index="30">
            -1.9900054931640625 return
          </CharString>
          <CharString index="31">
            2.9900054931640625 return
          </CharString>
          <CharString index="32">
            -47 callgsubr
            -7 callgsubr
            hhcurveto
            -183 return
          </CharString>
          <CharString index="33">
            -52 -99 callsubr
            180.97999572753906 934.0400085449219 -102 callgsubr
            return
          </CharString>
          <CharString index="34">
            -177 -200 -30 callsubr
            -25.990005493164062 -41.99000549316406 return
          </CharString>
          <CharString index="35">
            41.99000549316406 -344 -92 callgsubr
            endchar
          </CharString>
          <CharString index="36">
            rmoveto
            -78 callgsubr
            226 22 callsubr
            vlineto
            return
          </CharString>
          <CharString index="37">
            -8.990005493164062 return
          </CharString>
          <CharString index="38">
            216 -202 144 60 -262 297.97999572753906 rlineto
            -197 hlineto
            return
          </CharString>
          <CharString index="39">
            -107 664.9799957275391 162.50999450683594 699.4900054931641 159 hstem
            726.9900054931641 213.99000549316406 vstem
            537.9900054931641 825 rmoveto
            234 150 169 192 215 vvcurveto
            148.99000549316406 -108.00999450683594 155.02000427246094 -253.99000549316406 -189 -151.99000549316406 -100 -92 -63.02000427246094 vhcurveto
            91.00999450683594 -109.02000427246094 rlineto
            91.00999450683594 89 callsubr
            -45 callsubr
            51 111 hhcurveto
            110 76 68 callsubr
            -128 -235 -375.00999450683594 -256 -147 170 callgsubr
            hvcurveto
            43 -110 rlineto
            747.9900054931641 165 hlineto
            -458 -5 rlineto
            endchar
          </CharString>
          <CharString index="40">
            rmoveto
            -78 callgsubr
            85.00999450683594 vlineto
            109 153 -14 -77 callsubr
            100.99000549316406 hvcurveto
            return
          </CharString>
          <CharString index="41">
            -46.02000427246094 81 rlineto
            -995.9900054931641 -177.99000549316406 750 hlineto
            -58 -71 -777.0099945068359 -1189.009994506836 rlineto
            return
          </CharString>
          <CharString index="42">
            -50 -210.99000549316406 -49 217.99000549316406 -188.99000549316406 684.0099945068359 rlineto
            -219.02000427246094 hlineto
            -189.99000549316406 -685.0200042724609 rlineto
            return
          </CharString>
          <CharString index="43">
            201 744.9799957275391 40 182 36.99000549316406 -182 204 -744.9799957275391 rlineto
            203 hlineto
            348.02000427246094 1155.990005493164 rlineto
            return
          </CharString>
          <CharString index="44">
            28 -51 callgsubr
            99 139.02000427246094 vvcurveto
            110.99000549316406 -48 78 return
          </CharString>
          <CharString index="45">
            -50.02000427246094 return
          </CharString>
          <CharString index="46">
            99.97999572753906 225 918.010009765625 -42 callgsubr
            return
          </CharString>
          <CharString index="47">
            61.99000549316406 92.02000427246094 75 return
          </CharString>
          <CharString index="48">
            1664.979995727539 rmoveto
            93 -92 115 41 188 138 93 95 rlinecurve
            105 callgsubr
            return
          </CharString>
          <CharString index="49">
            1801.990005493164 rmoveto
            -83 64 -49.99000549316406 return
          </CharString>
          <CharString index="50">
            -91 callsubr
            147 -64 callgsubr
            -55 callgsubr
            205 callgsubr
            -264.97999572753906 122 callgsubr
            hintmask 11011000
            -55 callgsubr
            -58 callsubr
            75 83 200 callgsubr
            62 92 vhcurveto
            hintmask 11101000
            157 callgsubr
            58 0 callsubr
            vhcurveto
            hintmask 11011000
            -70 callgsubr
            -81 -66 callgsubr
            -87 hvcurveto
            hintmask 11010100
            34 -280 -71 callsubr
            endchar
          </CharString>
          <CharString index="51">
            -94.99000549316406 return
          </CharString>
          <CharString index="52">
            -20.990005493164062 return
          </CharString>
          <CharString index="53">
            rmoveto
            -538.9900054931641 -1530 rlineto
            103 callsubr
            983 -1296.020004272461 rmoveto
            -37 callgsubr
            151 rlineto
            -194 272.02000427246094 hlineto
            -195 -20.009994506835938 -7.9900054931640625 -249 rlineto
            -3 -308 vlineto
            41.99000549316406 69 396 608.0099945068359 -130.99000549316406 77 rlineto
            -68 hlineto
            -482.02000427246094 -811.0099945068359 52.02000427246094 -94 rlineto
            499 hlineto
            -1 -281.97999572753906 rlineto
            204 281.97999572753906 194.99000549316406 hlineto
            endchar
          </CharString>
          <CharString index="54">
            rmoveto
            -78 callgsubr
            832 -75 callgsubr
            -604 1347.009994506836 -228 vlineto
            return
          </CharString>
          <CharString index="55">
            165.99000549316406 return
          </CharString>
          <CharString index="56">
            -1131.990005493164 -455 rmoveto
            -222 128.99000549316406 -192 225 4 vhcurveto
            199.99000549316406 5 183 146 267 vvcurveto
            231.02000427246094 -107.00999450683594 42 callgsubr
            -246.99000549316406 -6 vhcurveto
            -200 -6 -182.99000549316406 167 callsubr
            -268 vvcurveto
            541.9900054931641 1 rmoveto
            -164 -63 -100 132 callsubr
            -109.02000427246094 -63 116 155 164 63 103 113.00999450683594 107.99000549316406 63 -109 203 callsubr
            vhcurveto
            return
          </CharString>
          <CharString index="57">
            87 callsubr
            861 -16 callsubr
            281.97999572753906 166 -281.97999572753906 149 vlineto
            145 182 callsubr
            115 callgsubr
            -55 callsubr
            -59 13.990005493164062 -62 hhcurveto
            -183 -230 -101.99000549316406 -341 hvcurveto
            -99 vlineto
            198 callsubr
            177 callgsubr
            173.02000427246094 vlineto
            return
          </CharString>
          <CharString index="58">
            868.9900054931641 vlineto
            91.00999450683594 66 116 35 72.99000549316406 -76 callsubr
            rrcurveto
            174 62 callgsubr
            34.02000427246094 -35 callsubr
            -186 vvcurveto
            -710.9799957275391 220 713.9900054931641 vlineto
            59 -3 52 -6 46 vhcurveto
            87 60.99000549316406 113.00999450683594 38 76 callsubr
            -76 callsubr
            rrcurveto
            176 62 callgsubr
            32 -35 callsubr
            -186 vvcurveto
            -710.9799957275391 220 713.9900054931641 vlineto
            return
          </CharString>
          <CharString index="59">
            96.99000549316406 return
          </CharString>
          <CharString index="60">
            rmoveto
            -101 184.02000427246094 -81 295 -141 -48 callsubr
            rrcurveto
            171 60 104 139 223 vvcurveto
            303.97999572753906 -208 124 -310 vhcurveto
            return
          </CharString>
          <CharString index="61">
            rmoveto
            42 -81.97999572753906 rlineto
            845 -37 callsubr
            -589 hlineto
            59 -21 callgsubr
            return
          </CharString>
          <CharString index="62">
            86.02000427246094 return
          </CharString>
          <CharString index="63">
            -90.00999450683594 return
          </CharString>
          <CharString index="64">
            7.9900054931640625 return
          </CharString>
          <CharString index="65">
            -1137.990005493164 return
          </CharString>
          <CharString index="66">
            rmoveto
            -42 callsubr
            return
          </CharString>
          <CharString index="67">
            63 callgsubr
            hstem
            606.9799957275391 178 vstem
            606.9900054931641 520.9900054931641 rmoveto
            -236 178 236 vlineto
            -8 171 141 -7 rlineto
            245.99000549316406 63 callgsubr
            -245.99000549316406 hlineto
            -141 -11 8 172.02000427246094 rlineto
            131 callgsubr
            -178 -227.97999572753906 vlineto
            7 -172.02000427246094 -165 11 rlineto
            -220 -176.99000549316406 220 hlineto
            165 7 -7 -171 rlineto
            return
          </CharString>
          <CharString index="68">
            166.99000549316406 -29 -52 callsubr
            -151.96002197265625 32 callsubr
            return
          </CharString>
          <CharString index="69">
            276 0 173.99000549316406 hstem
            54.99000549316406 1465.990005493164 vstem
            54.99000549316406 22 rmoveto
            48 callsubr
            -22 rlineto
            1436 hlineto
            16 26.990005493164062 -746 1480.990005493164 rlineto
            35 callgsubr
            hlineto
            -688 -1485.990005493164 rlineto
            1165 152 rmoveto
            -880 hlineto
            428.02000427246094 948.9799957275391 451.99000549316406 -948.9799957275391 rlineto
            endchar
          </CharString>
          <CharString index="70">
            159.99000549316406 return
          </CharString>
          <CharString index="71">
            83.99000549316406 return
          </CharString>
          <CharString index="72">
            -84.00999450683594 return
          </CharString>
          <CharString index="73">
            232 -222 135 27 callsubr
            return
          </CharString>
          <CharString index="74">
            rmoveto
            523.0200042724609 479.00999450683594 172 -479.00999450683594 479.99000549316406 653 172 -1061 vlineto
            -724.9700012207031 -78 callgsubr
            rlineto
            245.97999572753906 hlineto
            182.99000549316406 384.97999572753906 rlineto
            481.02000427246094 -384.97999572753906 236 callgsubr
            -726.0200042724609 hlineto
            -624.9900054931641 376.00999450683594 rmoveto
            return
          </CharString>
          <CharString index="75">
            -762.9900054931641 211 1001 vlineto
            -105 24.990005493164062 -47 -39 -184 -119.00999450683594 -121.02000427246094 -35 rlinecurve
            return
          </CharString>
          <CharString index="76">
            171.99000549316406 return
          </CharString>
          <CharString index="77">
            -79.00999450683594 return
          </CharString>
          <CharString index="78">
            -181 35 callsubr
            -55 -146 vhcurveto
            -30 -530.9799957275391 rmoveto
            77 callgsubr
            hlineto
            return
          </CharString>
          <CharString index="79">
            -59.96000671386719 -102 callgsubr
            return
          </CharString>
          <CharString index="80">
            869.9900054931641 vlineto
            44.99000549316406 50 88 49 111 hhcurveto
            94 36 -16 -11.020004272460938 19.990005493164062 hvcurveto
            return
          </CharString>
          <CharString index="81">
            vstem
            127 1020.9900054931641 rmoveto
            -29 callgsubr
            88 callgsubr
            69 -10 callgsubr
            118 -44 callgsubr
            250.02000427246094 vvcurveto
            182.99000549316406 -66 99 69 callsubr
            43 vhcurveto
            -143 218 callsubr
            0 callsubr
            104 callgsubr
            -50 vhcurveto
            -32 vlineto
            return
          </CharString>
          <CharString index="82">
            8 -34.02000427246094 4 -22 callsubr
            43 callsubr
            -65 rrcurveto
            -107.99000549316406 68 callgsubr
            -55 -42 -65 hhcurveto
            -30.990005493164062 -34.02000427246094 31 callsubr
            61 callsubr
            -31 callgsubr
            13.990005493164062 hvcurveto
            6 return
          </CharString>
          <CharString index="83">
            rmoveto
            -1349.979995727539 225 1349.979995727539 477 172 -1176.990005493164 144 callgsubr
            vlineto
            return
          </CharString>
          <CharString index="84">
            34 callsubr
            222 701.989990234375 222 return
          </CharString>
          <CharString index="85">
            -43.99000549316406 return
          </CharString>
          <CharString index="86">
            vstem
            98 1326 rmoveto
            -183 86 -140 119.99000549316406 -42.99000549316406 vhcurveto
            113.00999450683594 127 rlineto
            61.99000549316406 vlineto
            -52 24 -61 90.99000549316406 104 vvcurveto
            95 37 127 60 50 vhcurveto
            31.990005493164062 vlineto
            -96.00999450683594 61 rlineto
            -77 -62 callsubr
            -129.99000549316406 -151 -205.99000549316406 vvcurveto
            return
          </CharString>
          <CharString index="87">
            -74 callsubr
            148 callgsubr
            return
          </CharString>
          <CharString index="88">
            -559.9900054931641 43 516.9900054931641 return
          </CharString>
          <CharString index="89">
            58.97999572753906 return
          </CharString>
          <CharString index="90">
            -324 -99 callsubr
            162.97999572753906 847.0000152587891 -17 callgsubr
            return
          </CharString>
          <CharString index="91">
            973.9900054931641 24 callgsubr
            return
          </CharString>
          <CharString index="92">
            169.97999572753906 -95 callsubr
            return
          </CharString>
          <CharString index="93">
            -185 -507 182 -167.97999572753906 43 181 callsubr
            119 callsubr
            return
          </CharString>
          <CharString index="94">
            160.99000549316406 40 callsubr
            return
          </CharString>
          <CharString index="95">
            -19.990005493164062 return
          </CharString>
          <CharString index="96">
            125.99000549316406 return
          </CharString>
          <CharString index="97">
            -37 callgsubr
            120 rlineto
            -196.02000427246094 return
          </CharString>
          <CharString index="98">
            241.99000549316406 263 112 callgsubr
            -9 callgsubr
            return
          </CharString>
          <CharString index="99">
            -60 callsubr
            -44 -18 callsubr
            return
          </CharString>
          <CharString index="100">
            -26.009994506835938 return
          </CharString>
          <CharString index="101">
            rmoveto
            -7 callsubr
            vlineto
            74 -92 rlineto
            141.99000549316406 53 123 174 218.99000549316406 vvcurveto
            116 -51 157 -140 52 vhcurveto
            -139 -131 rlineto
            -63 vlineto
            63 -7 59 -109.97999572753906 -35 callsubr
            vvcurveto
            -113.99000549316406 -57 -107.00999450683594 -74 -36.99000549316406 vhcurveto
            endchar
          </CharString>
          <CharString index="102">
            -15 callsubr
            463.02000427246094 -95 callsubr
            return
          </CharString>
          <CharString index="103">
            34 callgsubr
            220.00999450683594 return
          </CharString>
          <CharString index="104">
            223.99000549316406 return
          </CharString>
          <CharString index="105">
            217 63 callsubr
            187 190 -17 hvcurveto
            -150 hlineto
            -27 -1 -1 -178 -189.99000549316406 hhcurveto
            -191 -22 callgsubr
            178 27 return
          </CharString>
          <CharString index="106">
            -34 callsubr
            -276.00999450683594 146 callgsubr
            return
          </CharString>
          <CharString index="107">
            -95.00999450683594 return
          </CharString>
          <CharString index="108">
            -169 -99 callsubr
            63 callgsubr
            1201.979995727539 175 return
          </CharString>
          <CharString index="109">
            75 -41 rlineto
            61.99000549316406 -63 callgsubr
            237 callsubr
            93 callgsubr
            return
          </CharString>
          <CharString index="110">
            -71 callgsubr
            -94 return
          </CharString>
          <CharString index="111">
            rmoveto
            -70 callsubr
            return
          </CharString>
          <CharString index="112">
            1 rmoveto
            -164 -62.02000427246094 -99.99000549316406 -112.99000549316406 -108.99000549316406 -62.02000427246094 116 159 callgsubr
            165 110 callgsubr
            102.99000549316406 180 callsubr
            109 110 callgsubr
            -110 -165 vhcurveto
            return
          </CharString>
          <CharString index="113">
            93 -945.9900054931641 rlineto
            224 hlineto
            -182 -65 callgsubr
            rlineto
            -298.99000549316406 hlineto
            -270 -869.0099945068359 -75 -322.99000549316406 -30 callsubr
            322.99000549316406 -281.99000549316406 869.0099945068359 rlineto
            -315 hlineto
            endchar
          </CharString>
          <CharString index="114">
            16 callsubr
            -220 -1186 vlineto
            74 callgsubr
            return
          </CharString>
          <CharString index="115">
            -507 154 -140.99000549316406 43 450.99000549316406 return
          </CharString>
          <CharString index="116">
            -136 -113.99000549316406 -124.99000549316406 rlinecurve
            return
          </CharString>
          <CharString index="117">
            123 -199 -1645.990005493164 220 367 vlineto
            -26 callgsubr
            151.97999572753906 rlineto
            -15.970001220703125 47 64.99000549316406 -13 199 callsubr
            hhcurveto
            344.99000549316406 226 258.97999572753906 368.99000549316406 hvcurveto
            return
          </CharString>
          <CharString index="118">
            -884 65 19 callgsubr
          </CharString>
          <CharString index="119">
            -5 41 48 -77 callsubr
            59 hhcurveto
            endchar
          </CharString>
          <CharString index="120">
            1929.990005493164 rmoveto
            246 84 callsubr
            return
          </CharString>
          <CharString index="121">
            1929.990005493164 rmoveto
            245.99000549316406 53 callsubr
            return
          </CharString>
          <CharString index="122">
            -135 56 -232 -222 -249 223 return
          </CharString>
          <CharString index="123">
            151 392.99000549316406 hvcurveto
            1101 return
          </CharString>
          <CharString index="124">
            143 callgsubr
            -16 127 -157 231.02000427246094 hhcurveto
            220 143 callsubr
            -149 hlineto
            -24 -37 callgsubr
            -2 -141 -190 hhcurveto
            -190.02000427246094 194 callsubr
            return
          </CharString>
          <CharString index="125">
            499 -661.0200042724609 rmoveto
            -81 -116 68 callgsubr
            11.979995727539062 -80 hvcurveto
            500.02000427246094 vlineto
            10 28 123 -76 callsubr
            40 hhcurveto
            206 115 -75 -159.99000549316406 -189 -106 -94 -129 hvcurveto
            return
          </CharString>
          <CharString index="126">
            hhcurveto
            346 228.99000549316406 261 368.99000549316406 370.02000427246094 -210 174 -239.97999572753906 hvcurveto
            return
          </CharString>
          <CharString index="127">
            230 callsubr
            -125.99000549316406 -136 -114 -124.99000549316406 rlinecurve
            110.97999572753906 -44 callsubr
            73.02000427246094 28 261 243.02000427246094 49 32 callgsubr
            return
          </CharString>
          <CharString index="128">
            75 -46 60 0 callsubr
            116 callsubr
            return
          </CharString>
          <CharString index="129">
            -65 callgsubr
            -226 return
          </CharString>
          <CharString index="130">
            49 callsubr
            91 callgsubr
            505.00999450683594 218.99000549316406 return
          </CharString>
          <CharString index="131">
            -52 callsubr
            -21.990005493164062 161 hstemhm
            return
          </CharString>
          <CharString index="132">
            97 callsubr
            116 callgsubr
            hvcurveto
            return
          </CharString>
          <CharString index="133">
            hstem
            48 callgsubr
            439.010009765625 87 callsubr
            return
          </CharString>
          <CharString index="134">
            56 -268 332 rlineto
            -198 hlineto
            return
          </CharString>
          <CharString index="135">
            -128 -59.99000549316406 return
          </CharString>
          <CharString index="136">
            209 callgsubr
            66 75 callgsubr
            237 -216 81 -37 rlinecurve
            return
          </CharString>
          <CharString index="137">
            61 callsubr
            126 rlineto
            -185 -42 callsubr
            220 hlineto
            return
          </CharString>
          <CharString index="138">
            -76 callsubr
            11.020004272460938 -17 hvcurveto
            return
          </CharString>
          <CharString index="139">
            -102 callgsubr
            hstemhm
            return
          </CharString>
          <CharString index="140">
            1688.990005493164 rmoveto
            137 -57 111 callgsubr
            return
          </CharString>
          <CharString index="141">
            158.99000549316406 return
          </CharString>
          <CharString index="142">
            -88.99000549316406 return
          </CharString>
          <CharString index="143">
            -74 callsubr
            508 43 148 callgsubr
            return
          </CharString>
          <CharString index="144">
            41 callgsubr
            -34 callsubr
            return
          </CharString>
          <CharString index="145">
            66 0 56 callsubr
            return
          </CharString>
          <CharString index="146">
            118.99000549316406 202.99000549316406 return
          </CharString>
          <CharString index="147">
            -56.95001220703125 -102 callgsubr
            return
          </CharString>
          <CharString index="148">
            219 -99.989990234375 210 return
          </CharString>
          <CharString index="149">
            94.99000549316406 return
          </CharString>
          <CharString index="150">
            -9.009994506835938 return
          </CharString>
          <CharString index="151">
            187 callgsubr
            -86.02000427246094 86 callsubr
            -18 callgsubr
            -55 -73.00999450683594 hhcurveto
            hintmask 11011100
            return
          </CharString>
          <CharString index="152">
            1492.990005493164 rmoveto
            221 callsubr
            80 66 callsubr
            -39 58 -91 -76 -30 callsubr
            163 callsubr
            return
          </CharString>
          <CharString index="153">
            -91 callsubr
            hstem
            return
          </CharString>
          <CharString index="154">
            157 callsubr
            224 return
          </CharString>
          <CharString index="155">
            14.009994506835938 return
          </CharString>
          <CharString index="156">
            124.99000549316406 return
          </CharString>
          <CharString index="157">
            48.99000549316406 return
          </CharString>
          <CharString index="158">
            -107.00999450683594 -70 -45 -99 1 vhcurveto
            -100 -22 callgsubr
            -7 callgsubr
            110 callgsubr
            110 callsubr
            vvcurveto
            109.02000427246094 82 34 80 -1 vhcurveto
            return
          </CharString>
          <CharString index="159">
            49 682.9799957275391 177 hstem
            249.99000549316406 849.9799957275391 vstem
            250 860 rmoveto
            -177 849.9900054931641 177 -849.9900054931641 vlineto
            endchar
          </CharString>
          <CharString index="160">
            -260.00999450683594 rlineto
            return
          </CharString>
          <CharString index="161">
            143 43.99000549316406 -169 193 hhcurveto
            170 107.99000549316406 99 104 144 callsubr
            hvcurveto
            -103.02000427246094 99 rlineto
            -65 -47.99000549316406 -60 return
          </CharString>
          <CharString index="162">
            -643.0099945068359 -430 rlineto
            -184.02000427246094 vlineto
            643.0099945068359 -414.99000549316406 57 34 callsubr
            -484 352.00999450683594 484 355 return
          </CharString>
          <CharString index="163">
            43 604.9799957275391 152 574 164 137 callgsubr
            return
          </CharString>
          <CharString index="164">
            30.990005493164062 return
          </CharString>
          <CharString index="165">
            -60 callgsubr
            209 291 return
          </CharString>
          <CharString index="166">
            76 -60 callsubr
            return
          </CharString>
          <CharString index="167">
            -56 276.00999450683594 -333 rlineto
            198 hlineto
            return
          </CharString>
          <CharString index="168">
            -14.990005493164062 return
          </CharString>
          <CharString index="169">
            20.990005493164062 return
          </CharString>
          <CharString index="170">
            142.99000549316406 return
          </CharString>
          <CharString index="171">
            -99 callsubr
            -55 callgsubr
            838.9799957275391 160 hstem
            161 callgsubr
            return
          </CharString>
          <CharString index="172">
            196.99000549316406 -95 callsubr
            return
          </CharString>
          <CharString index="173">
            74 61 88 -30 callgsubr
            return
          </CharString>
          <CharString index="174">
            -153.99000549316406 return
          </CharString>
          <CharString index="175">
            -54.99000549316406 return
          </CharString>
          <CharString index="176">
            -89.99000549316406 return
          </CharString>
          <CharString index="177">
            hmoveto
            80 66 callsubr
            -40 58 69 callsubr
            -77 170 callgsubr
            4 callgsubr
            return
          </CharString>
          <CharString index="178">
            135 callsubr
            -146 -133 return
          </CharString>
          <CharString index="179">
            157 181 -17 hvcurveto
            -149 hlineto
            -24 -1 -77 callsubr
            -141 -190.02000427246094 hhcurveto
            -189.99000549316406 176 callgsubr
            return
          </CharString>
          <CharString index="180">
            138 callsubr
            1364.990005493164 return
          </CharString>
          <CharString index="181">
            -127 -135 -16 -98 hhcurveto
            return
          </CharString>
          <CharString index="182">
            -79.02000427246094 return
          </CharString>
          <CharString index="183">
            78.99000549316406 return
          </CharString>
          <CharString index="184">
            134 callgsubr
            179 callgsubr
            return
          </CharString>
          <CharString index="185">
            -8 callgsubr
            -12 callsubr
            -24 vhcurveto
            return
          </CharString>
          <CharString index="186">
            -610.0200042724609 -890 rlineto
            endchar
          </CharString>
          <CharString index="187">
            -135 -115 -16 -116 hhcurveto
            -105 hlineto
            407 -836 rmoveto
            -58 -59 169 callgsubr
            167 callgsubr
            -66 callgsubr
            hvcurveto
            return
          </CharString>
          <CharString index="188">
            rmoveto
            -78 callgsubr
            224 678.9900054931641 487 -31 callsubr
            -487 499 650 172 -874 vlineto
            endchar
          </CharString>
          <CharString index="189">
            23 vhcurveto
            -158 -58 callgsubr
            return
          </CharString>
          <CharString index="190">
            1588 rmoveto
            -547 -163 547 163 hlineto
            return
          </CharString>
          <CharString index="191">
            53 callsubr
            197 hlineto
            return
          </CharString>
          <CharString index="192">
            43 -41.989990234375 43 hstemhm
            return
          </CharString>
          <CharString index="193">
            70.99000549316406 rlineto
            -44 -41 return
          </CharString>
          <CharString index="194">
            -95 callsubr
            vstem
            return
          </CharString>
          <CharString index="195">
            -12 callgsubr
            -83 return
          </CharString>
          <CharString index="196">
            77.99000549316406 return
          </CharString>
          <CharString index="197">
            126.00999450683594 return
          </CharString>
          <CharString index="198">
            0 43 1438.0299987792969 126 callgsubr
            return
          </CharString>
          <CharString index="199">
            136 callsubr
            76 hhcurveto
            86 79.02000427246094 138 callgsubr
            -3 hvcurveto
            224 callsubr
            return
          </CharString>
          <CharString index="200">
            -76 callsubr
            hvcurveto
            endchar
          </CharString>
          <CharString index="201">
            88 49 46 74 35 vhcurveto
            39 81 123 16 111 hhcurveto
            1 2 2 -105 16 -44 callsubr
            28 -75.97999572753906 rlinecurve
            return
          </CharString>
          <CharString index="202">
            1688.990005493164 rmoveto
            136.99000549316406 -57 111 callgsubr
            return
          </CharString>
          <CharString index="203">
            132 callgsubr
            171 hhcurveto
            122 return
          </CharString>
          <CharString index="204">
            197 callgsubr
            -79 -83 -69 -87 return
          </CharString>
          <CharString index="205">
            147.989990234375 43 -43 146 hstemhm
            return
          </CharString>
          <CharString index="206">
            284.99000549316406 return
          </CharString>
          <CharString index="207">
            138.02000427246094 return
          </CharString>
          <CharString index="208">
            vstem
            284 1792.979995727539 rmoveto
            -94 -602.9900054931641 rlineto
            163 hlineto
            162 602.9900054931641 rlineto
            -231 hlineto
            return
          </CharString>
          <CharString index="209">
            1631.990005493164 rmoveto
            220 143 callsubr
            168 callgsubr
            hlineto
            -24 -1 -2 -141 -190 hhcurveto
            return
          </CharString>
          <CharString index="210">
            197 hlineto
            542 1530 rlineto
            -200 hlineto
            return
          </CharString>
          <CharString index="211">
            15 callgsubr
            95 return
          </CharString>
          <CharString index="212">
            115 callsubr
            -59.94999694824219 40.96000671386719 47 callgsubr
            return
          </CharString>
          <CharString index="213">
            rmoveto
            164 callgsubr
            526.9900054931641 vlineto
            -1 39 61 -4 97 hhcurveto
            380 202 192 331 hvcurveto
            return
          </CharString>
          <CharString index="214">
            190 callsubr
            57.02000427246094 hvcurveto
            118 vlineto
            -17.020004272460938 return
          </CharString>
          <CharString index="215">
            1067.990005493164 229 callgsubr
            return
          </CharString>
          <CharString index="216">
            96.00999450683594 return
          </CharString>
          <CharString index="217">
            88.99000549316406 return
          </CharString>
          <CharString index="218">
            46.97999572753906 return
          </CharString>
          <CharString index="219">
            226 -574.0099945068359 rmoveto
            -285.97999572753906 -4 -139.02000427246094 -152 -182.99000549316406 hhcurveto
            -97 return
          </CharString>
          <CharString index="220">
            144 callsubr
            vhcurveto
            -176 -55 -13.990005493164062 -47 rlineto
            24.990005493164062 -31 30 -92 -79 vvcurveto
            -163 return
          </CharString>
          <CharString index="221">
            -270.00999450683594 -7 68 callgsubr
            rlinecurve
            468.00999450683594 hmoveto
            49 callsubr
            -69.02000427246094 return
          </CharString>
          <CharString index="222">
            43 929.9799957275391 184 return
          </CharString>
          <CharString index="223">
            -70 callgsubr
            -83 -69 -87 return
          </CharString>
          <CharString index="224">
            -63 callsubr
            109 callgsubr
            23 vhcurveto
            return
          </CharString>
          <CharString index="225">
            155.99000549316406 331.00999450683594 50 callgsubr
            return
          </CharString>
          <CharString index="226">
            43 1056.0299987792969 -102 callgsubr
            return
          </CharString>
          <CharString index="227">
            hstem
            -48 callsubr
            91 callgsubr
            return
          </CharString>
          <CharString index="228">
            rmoveto
            -178 -691.0200042724609 rlineto
            return
          </CharString>
          <CharString index="229">
            -102 callgsubr
            hstem
            return
          </CharString>
          <CharString index="230">
            1572.990005493164 rmoveto
            return
          </CharString>
          <CharString index="231">
            622 61 callsubr
            43 -29.009994506835938 43 -42 43 1311.990005493164 166.99000549316406 return
          </CharString>
          <CharString index="232">
            141 24 -1 hvcurveto
            -152.99000549316406 hlineto
            -181 238 callsubr
            127.02000427246094 -157 return
          </CharString>
          <CharString index="233">
            -158 -58 callgsubr
            0 callgsubr
            -64 -51 vvcurveto
            -64 return
          </CharString>
          <CharString index="234">
            -144 158 40 callgsubr
            return
          </CharString>
          <CharString index="235">
            -699 -22 160 callgsubr
            -325.9700012207031 43 return
          </CharString>
          <CharString index="236">
            307.99000549316406 return
          </CharString>
          <CharString index="237">
            130.99000549316406 return
          </CharString>
          <CharString index="238">
            222.99000549316406 return
          </CharString>
          <CharString index="239">
            -111.99000549316406 return
          </CharString>
          <CharString index="240">
            -329 -195.99000549316406 -11 callgsubr
            754.9900054931641 142 748 146 hstem
            return
          </CharString>
          <CharString index="241">
            -154 -1522.990005493164 216 1 83 945.9900054931641 27 409 112 -409 rlineto
            return
          </CharString>
          <CharString index="242">
            92 -7 240 callsubr
            -5 13 rlinecurve
            return
          </CharString>
          <CharString index="243">
            66.99000549316406 -63.97999572753906 return
          </CharString>
          <CharString index="244">
            -65 callgsubr
            rmoveto
            return
          </CharString>
          <CharString index="245">
            hstemhm
            62 callsubr
            return
          </CharString>
          <CharString index="246">
            1780 rmoveto
            28 -1274 rlineto
            196.02000427246094 hlineto
            24 1274 rlineto
            -248 hlineto
            return
          </CharString>
          <CharString index="247">
            191 callsubr
            90 callgsubr
            64 92 75 return
          </CharString>
          <CharString index="248">
            1588 rmoveto
            -163 547 163 -547 vlineto
            return
          </CharString>
          <CharString index="249">
            hstemhm
            48 callgsubr
            return
          </CharString>
          <CharString index="250">
            139 157 181 -17 hvcurveto
            return
          </CharString>
          <CharString index="251">
            39.02000427246094 return
          </CharString>
          <CharString index="252">
            167.99000549316406 return
          </CharString>
          <CharString index="253">
            240.99000549316406 return
          </CharString>
          <CharString index="254">
            1292.979995727539 388.99000549316406 hstem
            111 callsubr
            742.0099945068359 vstem
            return
          </CharString>
          <CharString index="255">
            242 263 100 callgsubr
            57 -221 -174 -215.99000549316406 174 rlineto
            return
          </CharString>
          <CharString index="256">
            hstem
            160 callgsubr
            203.00999450683594 vstem
            160 callgsubr
            1780 rmoveto
            return
          </CharString>
          <CharString index="257">
            -218 0 43 635.9900054931641 -31 callsubr
            498.99998474121094 172 return
          </CharString>
          <CharString index="258">
            98 432.97999572753906 166 350 167 hstem
            241.99000549316406 915 vstem
            return
          </CharString>
          <CharString index="259">
            74 callgsubr
            112 callgsubr
            return
          </CharString>
          <CharString index="260">
            159 callsubr
            195 callsubr
            return
          </CharString>
          <CharString index="261">
            43 232 callsubr
            return
          </CharString>
          <CharString index="262">
            -66 callgsubr
            -88 -82 63 -51 return
          </CharString>
          <CharString index="263">
            1846.990005493164 rmoveto
            return
          </CharString>
          <CharString index="264">
            hstemhm
            -79 callsubr
            return
          </CharString>
          <CharString index="265">
            247.99000549316406 return
          </CharString>
          <CharString index="266">
            -80.02000427246094 return
          </CharString>
          <CharString index="267">
            173 callsubr
            hstem
            98 callgsubr
            vstem
            return
          </CharString>
          <CharString index="268">
            -464 -190.99000549316406 141 1642.9800109863281 143.99000549316406 hstem
            return
          </CharString>
          <CharString index="269">
            hstemhm
            -15 callsubr
            return
          </CharString>
          <CharString index="270">
            88 callsubr
            vhcurveto
            return
          </CharString>
          <CharString index="271">
            287.97999572753906 return
          </CharString>
          <CharString index="272">
            -11.979995727539062 return
          </CharString>
          <CharString index="273">
            -126.02000427246094 return
          </CharString>
          <CharString index="274">
            -146.99000549316406 return
          </CharString>
          <CharString index="275">
            -67.00999450683594 return
          </CharString>
          <CharString index="276">
            183.99000549316406 return
          </CharString>
          <CharString index="277">
            73.99000549316406 return
          </CharString>
          <CharString index="278">
            177 callsubr
            -18 return
          </CharString>
          <CharString index="279">
            -64 -99 callsubr
            -55 callgsubr
            838.9799957275391 160 return
          </CharString>
          <CharString index="280">
            43 1306.979995727539 172 return
          </CharString>
          <CharString index="281">
            164 callsubr
            hstemhm
            return
          </CharString>
          <CharString index="282">
            180 callgsubr
            hstemhm
            return
          </CharString>
          <CharString index="283">
            1684.990005493164 rmoveto
            return
          </CharString>
          <CharString index="284">
            97 callgsubr
            62 198 callgsubr
            return
          </CharString>
          <CharString index="285">
            1647.979995727539 rmoveto
            226 callgsubr
            return
          </CharString>
          <CharString index="286">
            -95.99000549316406 return
          </CharString>
          <CharString index="287">
            112.99000549316406 return
          </CharString>
          <CharString index="288">
            449.97999572753906 return
          </CharString>
          <CharString index="289">
            67.99000549316406 return
          </CharString>
          <CharString index="290">
            89.99000549316406 return
          </CharString>
          <CharString index="291">
            rmoveto
            -34 callsubr
            return
          </CharString>
          <CharString index="292">
            391.99000549316406 825 rlineto
            10.020004272460938 -825 hlineto
            return
          </CharString>
          <CharString index="293">
            -447 -363 1962 hstem
            41.97999572753906 768 vstem
            return
          </CharString>
          <CharString index="294">
            104 62 callsubr
            96 callsubr
            return
          </CharString>
          <CharString index="295">
            -52 callsubr
            40 callsubr
            hstemhm
            return
          </CharString>
          <CharString index="296">
            -298.97999572753906 -177.99000549316406 -58 -195 vhcurveto
            endchar
          </CharString>
          <CharString index="297">
            140 hhcurveto
            -21 callgsubr
            -29 callgsubr
            16 43 return
          </CharString>
          <CharString index="298">
            174 callgsubr
            -83 65.99000549316406 -52 75 83 return
          </CharString>
          <CharString index="299">
            212 callgsubr
            vstem
            return
          </CharString>
          <CharString index="300">
            212 callsubr
            vhcurveto
            return
          </CharString>
          <CharString index="301">
            176 callgsubr
            -153 hlineto
            return
          </CharString>
          <CharString index="302">
            -66 callgsubr
            -88 vhcurveto
            return
          </CharString>
          <CharString index="303">
            -17 callgsubr
            hstem
            return
          </CharString>
          <CharString index="304">
            -138 -126 -136 return
          </CharString>
          <CharString index="305">
            -173.02000427246094 return
          </CharString>
          <CharString index="306">
            75.02000427246094 return
          </CharString>
          <CharString index="307">
            239.97999572753906 return
          </CharString>
          <CharString index="308">
            127.010009765625 return
          </CharString>
          <CharString index="309">
            -15.009994506835938 return
          </CharString>
          <CharString index="310">
            -164.99000549316406 return
          </CharString>
          <CharString index="311">
            80.02000427246094 return
          </CharString>
          <CharString index="312">
            -142.99000549316406 return
          </CharString>
          <CharString index="313">
            255 -91 callsubr
            return
          </CharString>
          <CharString index="314">
            -71 76 51 181 212 60.99000549316406 105 rlinecurve
            return
          </CharString>
          <CharString index="315">
            rmoveto
            237 callsubr
            -92 rlineto
            -62 callsubr
            vlineto
            return
          </CharString>
          <CharString index="316">
            291 232 callgsubr
            return
          </CharString>
          <CharString index="317">
            -124.99000549316406 rlinecurve
            22 callgsubr
            return
          </CharString>
          <CharString index="318">
            -77 -55 -134 -54 -106.99000549316406 hhcurveto
            endchar
          </CharString>
          <CharString index="319">
            -83 64 -49.99000549316406 75 return
          </CharString>
          <CharString index="320">
            215.97999572753906 return
          </CharString>
          <CharString index="321">
            -44.02000427246094 return
          </CharString>
          <CharString index="322">
            149.99000549316406 return
          </CharString>
          <CharString index="323">
            810.9900054931641 return
          </CharString>
          <CharString index="324">
            207.99000549316406 return
          </CharString>
          <CharString index="325">
            -117 rlineto
            -61 vlineto
            42 -25.990005493164062 51 return
          </CharString>
          <CharString index="326">
            75 callsubr
            -81 -66 callgsubr
            -87 return
          </CharString>
          <CharString index="327">
            90 callsubr
            295.00001525878906 124 return
          </CharString>
          <CharString index="328">
            -80 59 -62 callsubr
            -35 callgsubr
            return
          </CharString>
          <CharString index="329">
            -88 2 136 callsubr
            return
          </CharString>
          <CharString index="330">
            rmoveto
            -226 -989 rlineto
            return
          </CharString>
          <CharString index="331">
            81 -77 callsubr
            return
          </CharString>
          <CharString index="332">
            201 callsubr
            43 return
          </CharString>
          <CharString index="333">
            hstem
            -3 callgsubr
            return
          </CharString>
          <CharString index="334">
            -11 callsubr
            rlineto
            -32.99000549316406 return
          </CharString>
          <CharString index="335">
            rlineto
            64 47 52 50 93.99000549316406 hhcurveto
            return
          </CharString>
          <CharString index="336">
            hstemhm
            -48 callsubr
            -3 callsubr
            return
          </CharString>
          <CharString index="337">
            rmoveto
            199 callgsubr
            135 -98 -138 return
          </CharString>
          <CharString index="338">
            155 callsubr
            74 hvcurveto
            return
          </CharString>
          <CharString index="339">
            hstem
            65 callsubr
            return
          </CharString>
          <CharString index="340">
            970 162 -970 -162 hlineto
            endchar
          </CharString>
          <CharString index="341">
            165 callsubr
            -45 hhcurveto
            return
          </CharString>
          <CharString index="342">
            191.010009765625 291 return
          </CharString>
          <CharString index="343">
            167.02000427246094 return
          </CharString>
          <CharString index="344">
            -157.99000549316406 return
          </CharString>
          <CharString index="345">
            -16.020004272460938 return
          </CharString>
          <CharString index="346">
            184.99000549316406 return
          </CharString>
          <CharString index="347">
            6 -331 296 return
          </CharString>
          <CharString index="348">
            -120.02000427246094 return
          </CharString>
          <CharString index="349">
            -21.020004272460938 return
          </CharString>
          <CharString index="350">
            -258.99000549316406 return
          </CharString>
          <CharString index="351">
            -125.00999450683594 return
          </CharString>
          <CharString index="352">
            -137 -116 -16 -116 hhcurveto
            -110 return
          </CharString>
          <CharString index="353">
            2 0 173 callsubr
            return
          </CharString>
        <CharString name=".notdef">
          571 0 218.99000549316406 973.989990234375 223 hstem
          131 callgsubr
          229 960.010009765625 227 vstem
          131 callgsubr
          1415.990005493164 rmoveto
          -1415.990005493164 1416.009994506836 1415.990005493164 -1416.009994506836 vlineto
          705 -828.9900054931641 rmoveto
          -347 -368 -128 144 357.99000549316406 342 -358.99000549316406 363.00999450683594 123 49 callsubr
          356.99000549316406 -367.99000549316406 352.00999450683594 366 128 -124 -363.00999450683594 -357.99000549316406 363.00999450683594 -368 -122 -122 -362 368 rlineto
          endchar
        </CharString>
        <CharString name="A">
          -87 callsubr
          73 callsubr
          hintmask 11011000
          1145 hmoveto
          -101 callgsubr
          hintmask 11101000
          -72 callgsubr
          hintmask 11011000
          44 callgsubr
        </CharString>
        <CharString name="AE">
          81 callgsubr
          hstemhm
          836.9900054931641 131 callsubr
          hintmask 11110100
          1059.979995727539 -75 callgsubr
          -33 callsubr
          hintmask 11101100
          185 callsubr
          hintmask 11110100
          -402 hlineto
          endchar
        </CharString>
        <CharString name="AEacute">
          81 callgsubr
          143.010009765625 43 hstemhm
          836.9900054931641 131 callsubr
          hintmask 11110110
          1380.990005493164 -27 callgsubr
          -321 -1672 -33 callsubr
          hintmask 11101110
          185 callsubr
          hintmask 11110110
          -402 hlineto
          endchar
        </CharString>
        <CharString name="Aacute">
          -87 callsubr
          225 callsubr
          73 callsubr
          hintmask 11011100
          1062.990005493164 -27 callgsubr
          82 -1846.990005493164 rmoveto
          -101 callgsubr
          hintmask 11101100
          -72 callgsubr
          hintmask 11011100
          44 callgsubr
        </CharString>
        <CharString name="Abreve">
          -87 callsubr
          94 -55 callgsubr
          73 callsubr
          hintmask 11011100
          701.9900054931641 102 callsubr
          -189.99000549316406 -22 callgsubr
          125 callsubr
          231 hhcurveto
          443 -1631.990005493164 rmoveto
          -101 callgsubr
          hintmask 11101100
          -72 callgsubr
          hintmask 11011100
          44 callgsubr
        </CharString>
        <CharString name="Acircumflex">
          -87 callsubr
          151.010009765625 -86 callgsubr
          20.990005493164062 1364.990005493164 hintmask 11010111
          701.9900054931641 1833.979995727539 rmoveto
          -69 callsubr
          hintmask 11011011
          43 callgsubr
          -301 137 -57 rlineto
          hintmask 11010111
          111 callgsubr
          443 -1833.979995727539 rmoveto
          -101 callgsubr
          hintmask 11100111
          -72 callgsubr
          hintmask 11010111
          44 callgsubr
        </CharString>
        <CharString name="Adieresis">
          -87 callsubr
          129.010009765625 174 callsubr
          305.99000549316406 297 199 297 hintmask 11011110
          442.97999572753906 -38 callgsubr
          206 -1666.990005493164 rmoveto
          -101 callgsubr
          hintmask 11101110
          -72 callgsubr
          hintmask 11011110
          44 callgsubr
        </CharString>
        <CharString name="Agrave">
          -87 callsubr
          225 callsubr
          73 callsubr
          hintmask 11011100
          738.9799957275391 123 callsubr
          92.02000427246094 71 callsubr
          76.97999572753906 -87 223 -153 -48 callsubr
          -34 rlinecurve
          406.02000427246094 -1572.990005493164 rmoveto
          -101 callgsubr
          hintmask 11101100
          -72 callgsubr
          hintmask 11011100
          44 callgsubr
        </CharString>
        <CharString name="Amacron">
          -87 callsubr
          191 -17 callgsubr
          hstemhm
          430.97999572753906 547 hintmask 00000000
          hintmask 11011100
          977.9799957275391 1890.979995727539 rmoveto
          -547 -162 547 162 hlineto
          236 callsubr
          -1890.979995727539 rmoveto
          -101 callgsubr
          hintmask 11101100
          -72 callgsubr
          hintmask 11011100
          44 callgsubr
        </CharString>
        <CharString name="Aogonek">
          106 -512 148 364 -82 callsubr
          hstemhm
          910.9900054931641 216 hintmask 11101100
          1254.990005493164 -363.99000549316406 rmoveto
          -70 -56 18.990005493164062 -45 callsubr
          -77 callsubr
          hvcurveto
          -2 92 105 100.99000549316406 118 66 rrcurveto
          37.99000549316406 hlineto
          -567.9900054931641 1537.990005493164 rlineto
          -215 hlineto
          -582 -1537.990005493164 rlineto
          235.99000549316406 hlineto
          136 384.97999572753906 rlineto
          623 hlineto
          129 -384.97999572753906 rlineto
          31.990005493164062 hlineto
          -120 -61 -148 -112.99000549316406 2 -128 rrcurveto
          -137 2 104 -73 140 hhcurveto
          -36 callsubr
          109 callsubr
          31 callgsubr
          -44 -50 234 callsubr
          -803 914.9799957275391 rmoveto
          hintmask 11110100
          -72 callgsubr
          hintmask 11101100
          44 callgsubr
        </CharString>
        <CharString name="Aring">
          106 0 43 341.97999572753906 166 1295 124 hstem
          380.97999572753906 155.99000549316406 331.00999450683594 154 vstem
          1145 hmoveto
          146 callsubr
          hlineto
          -538.9900054931641 1459 101 36 72.99000549316406 80 1 132 rlinecurve
          171 1 -127 92 -195.02000427246094 hhcurveto
          -156 -160.99000549316406 -71 -191 -3.0200042724609375 hvcurveto
          -2 -128 206 callgsubr
          -91 118.99000549316406 -36 -549.9900054931641 -1452.990005493164 rcurveline
          235.99000549316406 hlineto
          136 384.97999572753906 rlineto
          623 hlineto
          129 -384.97999572753906 rlineto
          -446.02000427246094 1845.990005493164 rmoveto
          95 -1 74 -46 -93 vvcurveto
          -106.99000549316406 -70 -39.02000427246094 -99 1 vhcurveto
          -99.99000549316406 2 -62 82 callgsubr
          -246.99000549316406 -1295 rmoveto
          -72 callgsubr
          44 callgsubr
        </CharString>
        <CharString name="Atilde">
          -87 callsubr
          123 24 callsubr
          20.990005493164062 1364.990005493164 hintmask 00000000
          hintmask 11010110
          546 1804.979995727539 rmoveto
          hintmask 11011010
          104 57 callsubr
          -144 158 -19 callgsubr
          hintmask 11010110
          7 callgsubr
          201 callgsubr
          -68 rlineto
          45 41 61.99000549316406 57 -35 callgsubr
          hhcurveto
          hintmask 11011010
          599 -1804.979995727539 rmoveto
          -101 callgsubr
          hintmask 11101010
          -72 callgsubr
          hintmask 11011010
          44 callgsubr
        </CharString>
        <CharString name="B">
          45 callgsubr
          hstemhm
          193.99000549316406 222 511.989990234375 216 -123 122 callgsubr
          hintmask 01101101
          -79 callsubr
          1523 rmoveto
          -1523 111 vlineto
          hintmask 10110101
          52 callgsubr
          hintmask 10110110
          65 callgsubr
          hintmask 01101101
          -104 1 rlineto
          hintmask 10110110
          18 callsubr
          hintmask 10110101
          6 callgsubr
        </CharString>
        <CharString name="C">
          12 -99 callsubr
          -52 callgsubr
          1196.990005493164 181 hstem
          42 callsubr
          220.99000549316406 vstem
          798.9900054931641 1537.990005493164 -100 callsubr
        </CharString>
        <CharString name="CR">
          -1301 endchar
        </CharString>
        <CharString name="Cacute">
          12 -99 callsubr
          -52 callgsubr
          1196.990005493164 181 225 callsubr
          hstem
          42 callsubr
          220.99000549316406 vstem
          666.9900054931641 -59 callsubr
          -331 -296 -7 -6 rlinecurve
          132 -127 -100 callsubr
        </CharString>
        <CharString name="Ccaron">
          12 -99 callsubr
          -52 callgsubr
          1196.990005493164 181 132 43 -43 146 hstemhm
          42 callsubr
          220.99000549316406 hintmask 11101000
          451.99000549316406 13 callsubr
          hintmask 11011000
          -9 callsubr
          rlineto
          hintmask 11101000
          28 callsubr
          rlineto
          347 -392 -100 callsubr
        </CharString>
        <CharString name="Ccedilla">
          12 39 callgsubr
          293.00999450683594 -75 callgsubr
          1196.990005493164 181 hstem
          42 callsubr
          220.99000549316406 409.00999450683594 163 vstem
          1186.979995727539 252.99000549316406 rmoveto
          -47 -52.97999572753906 -165 -46 -156 hhcurveto
          -310 -187 252 356 360 189 228.99000549316406 309 228.99000549316406 94 -59 61 callsubr
          29 hvcurveto
          32 198 rlineto
          13 -54 69 callgsubr
          43.99000549316406 -231 hhcurveto
          -374 -330 -281 -504 -431 243 -297 383.02000427246094 -36.99000549316406 hvcurveto
          8.990005493164062 -34 4 -46 -70 callsubr
          -66 rrcurveto
          -107.99000549316406 -7 68 callsubr
          -42 -65 hhcurveto
          165 callgsubr
          -34 31 callsubr
          202 callsubr
          -31 callgsubr
          48 callsubr
          hvcurveto
          6 -21 callgsubr
          43 callsubr
          77 -24.990005493164062 53 159 callgsubr
          -43 callsubr
          94 39.99000549316406 76 callsubr
          31.009994506835938 -1 188.99000549316406 rcurveline
          endchar
        </CharString>
        <CharString name="Ccircumflex">
          12 -99 callsubr
          -52 callgsubr
          1196.990005493164 181 151.010009765625 -86 callgsubr
          42 callsubr
          220.99000549316406 hintmask 00000000
          hintmask 11101100
          436.97999572753906 33 callsubr
          hintmask 11011100
          -69 callsubr
          hintmask 11101100
          43 callgsubr
          -301 rlineto
          hintmask 11011100
          362 -151 -100 callsubr
        </CharString>
        <CharString name="Cdotaccent">
          12 -99 callsubr
          -52 callgsubr
          1196.990005493164 181 131.010009765625 -64 callgsubr
          42 callsubr
          220.99000549316406 330.99998474121094 299 hintmask 11011100
          646.9799957275391 -58 callsubr
          75 83 77 62 92 vhcurveto
          hintmask 11101100
          75 -44 58 -56 callsubr
          vhcurveto
          hintmask 11011100
          -30 callsubr
          -81 -66 callgsubr
          -87 hvcurveto
          152 -264 -100 callsubr
        </CharString>
        <CharString name="D">
          171 -15 callgsubr
          43 1333.990005493164 102 callgsubr
          hintmask 00000000
          hintmask 01011100
          -79 callsubr
          1521.990005493164 -67 callsubr
          hintmask 10101100
          -89 callgsubr
          hintmask 10011100
          74 callsubr
          hintmask 01011100
          -112 hlineto
          hintmask 10101100
          483 -1373 19 callgsubr
        </CharString>
        <CharString name="Dcaron">
          171 -15 callgsubr
          43 1333.990005493164 -13 callsubr
          147.989990234375 43 -43 146 -33 callgsubr
          hintmask 10101011
          389 14 callsubr
          197.02000427246094 hlineto
          hintmask 10100111
          241.99000549316406 263 -120 136 callgsubr
          hintmask 10101011
          28 callsubr
          rlineto
          hintmask 01011011
          -195 -408 -67 callsubr
          hintmask 10101011
          -89 callgsubr
          hintmask 10011011
          74 callsubr
          hintmask 01011011
          -112 hlineto
          hintmask 10101011
          483 -1373 19 callgsubr
        </CharString>
        <CharString name="Dcroat">
          -86 callsubr
        </CharString>
        <CharString name="E">
          -84 0 -81 callsubr
          192 callsubr
          -79 callsubr
          1521.990005493164 -97 callsubr
        </CharString>
        <CharString name="Eacute">
          -84 0 -81 callsubr
          143.010009765625 43 192 callsubr
          552 -59 callsubr
          -331.02000427246094 -296 68 callgsubr
          -6 rlinecurve
          -358.00999450683594 205 callsubr
          -97 callsubr
        </CharString>
        <CharString name="Ebreve">
          -84 0 -81 callsubr
          110 172.99000549316406 192 callsubr
          337.97999572753906 17 callsubr
          -144 -448 -97 callsubr
        </CharString>
        <CharString name="Ecaron">
          -84 0 -81 callsubr
          148 43 -43 146 87 callgsubr
          hintmask 11110100
          337 14 callsubr
          197 hlineto
          hintmask 11101100
          148 callsubr
          hintmask 11110100
          28 callsubr
          rlineto
          -143 -408 -97 callsubr
        </CharString>
        <CharString name="Ecircumflex">
          -84 0 -81 callsubr
          167.010009765625 -86 callgsubr
          193.99000549316406 223 hintmask 00000000
          hintmask 11110110
          321.97999572753906 33 callsubr
          hintmask 11101110
          216 -202 143.99000549316406 60 -262 297.97999572753906 rlineto
          -197 hlineto
          hintmask 11110110
          43 callgsubr
          -301 rlineto
          hintmask 11101110
          -128 -167 -97 callsubr
        </CharString>
        <CharString name="Edieresis">
          -84 0 -81 callsubr
          145.010009765625 287.97999572753906 87 callgsubr
          -133 194 callgsubr
          hintmask 00000000
          hintmask 11110110
          284 33 callgsubr
          495.99000549316406 hmoveto
          -82 63.02000427246094 -51 74 -41 callgsubr
          -70 callgsubr
          153 callsubr
          hintmask 11111000
          -586 -278 -97 callsubr
        </CharString>
        <CharString name="Edotaccent">
          -84 0 -81 callsubr
          147.010009765625 -64 callgsubr
          193.99000549316406 223 114.989990234375 299 hintmask 11101110
          531.9900054931641 -58 callsubr
          75 83 77 62 92 vhcurveto
          hintmask 11110110
          75 214 callsubr
          58 -56 callsubr
          vhcurveto
          hintmask 11101110
          -30 callsubr
          -81 -66 callgsubr
          -87 hvcurveto
          -338 -280 -97 callsubr
        </CharString>
        <CharString name="Egrave">
          -84 0 -81 callsubr
          143.010009765625 43 192 callsubr
          716.9799957275391 29 callgsubr
          -523 -51 -97 callsubr
        </CharString>
        <CharString name="Emacron">
          -84 0 -81 callsubr
          207 -17 callgsubr
          87 callgsubr
          -8.010009765625 547 hintmask 00000000
          hintmask 11110100
          408.99000549316406 27 callgsubr
          hintmask 11111000
          -215 -368.99000549316406 -97 callsubr
        </CharString>
        <CharString name="Eng">
          283 46 callsubr
          -79 callsubr
          218 758.989990234375 219 vstem
          1390 538.9900054931641 rmoveto
          983 -219.02000427246094 -981 vlineto
          15.020004272460938 -240 -111 207 -677.0099945068359 1014 rlineto
          -205 hlineto
          2 -78 callgsubr
          rlineto
          217 954.9799957275391 hlineto
          -10.020004272460938 239 123 -217.99000549316406 628 -931 rlineto
          -140 -215 -157 -170.99000549316406 109 callgsubr
          vhcurveto
          57 -105 211 27 244 callgsubr
          160 56.02000427246094 272.97999572753906 rlinecurve
          29 136 -5 162 187 vvcurveto
          endchar
        </CharString>
        <CharString name="Eogonek">
          -84 -512 148 364 -81 callsubr
          212 callgsubr
          240 213 callsubr
          vstem
          1093.979995727539 hmoveto
          49 -75 callgsubr
          -726 523.0200042724609 479.00999450683594 172 -479.00999450683594 479.99000549316406 653 172 -876.0099945068359 -78 callgsubr
          727 hlineto
          -147 -7 callgsubr
          171 callgsubr
          -122 2 -128 rrcurveto
          -137 -22 callgsubr
          104 -63 107 callsubr
          -44 -49.99000549316406 165 callsubr
          -45.02000427246094 hhcurveto
          -70 -55.99000549316406 18.990005493164062 -45 callsubr
          -2 hvcurveto
          -77 callsubr
          92 105 100.99000549316406 117.99000549316406 66 rrcurveto
          endchar
        </CharString>
        <CharString name="Eth">
          -86 callsubr
        </CharString>
        <CharString name="Euro">
          204 -28 -37 callsubr
          379 63 callsubr
          229.00999450683594 63 callsubr
          345.00999450683594 166.99000549316406 hstem
          305.99000549316406 242.99000549316406 vstem
          1310.990005493164 89 callgsubr
          rmoveto
          -52 -72.99000549316406 -138.02000427246094 -41 -145 hhcurveto
          -245 -104.99000549316406 157 222 -40.02000427246094 hvcurveto
          502 63 callsubr
          -518 hlineto
          -26 callgsubr
          42 -1 43.99000549316406 0 44 0 34 1 32.99000549316406 32.02000427246094 flex1
          552.02001953125 0.0199737548828125 rlineto
          63 callsubr
          -529 vlineto
          57 226 141 120.02000427246094 191 -1 181 -1 68.00999450683594 -25 75.99000549316406 -41.99000549316406 53 174 rcurveline
          -82 18.990005493164062 -75.99000549316406 50 -214.02000427246094 -8 -315.97999572753906 -12 -224 -181.99000549316406 -83.99000549316406 -318.02000427246094 rrcurveto
          -197.02000427246094 205 callsubr
          170 hlineto
          -7 -52 -26 callgsubr
          -54 -57 vvcurveto
          -22 1 -22.020004272460938 1 -22 vhcurveto
          -194 205 callsubr
          209 hlineto
          -328.00999450683594 59 203 -210.97999572753906 340.99000549316406 hhcurveto
          294.00999450683594 63 170 callsubr
          13.990005493164062 88 hvcurveto
          -60 165 rlineto
          endchar
        </CharString>
        <CharString name="F">
          150 callsubr
          hstem
          -79 callsubr
          224 vstem
          -79 callsubr
          1521.990005493164 81 callsubr
        </CharString>
        <CharString name="G">
          -82 callgsubr
          hstem
          14 callgsubr
          vstem
          825 761 rmoveto
          -160 vlineto
          -106 callsubr
          -491.99000549316406 vlineto
          endchar
        </CharString>
        <CharString name="Gbreve">
          -82 callgsubr
          94.00999450683594 158 callgsubr
          14 callgsubr
          vstem
          806.9900054931641 102 callsubr
          -190 2 125 callsubr
          230.99000549316406 hhcurveto
          18 -870.9900054931641 rmoveto
          -160 vlineto
          -106 callsubr
          -491.99000549316406 vlineto
          endchar
        </CharString>
        <CharString name="Gcaron">
          -82 callgsubr
          132.00999450683594 43 -43 146 hstemhm
          14 callgsubr
          hintmask 00000000
          hintmask 11101110
          907 1669.979995727539 rmoveto
          -9 callsubr
          -128 -59.99000549316406 245.99000549316406 53 callsubr
          hintmask 11110110
          197.02000427246094 hlineto
          -82 -908.9900054931641 rmoveto
          -160 vlineto
          -106 callsubr
          -491.99000549316406 vlineto
          endchar
        </CharString>
        <CharString name="Gcircumflex">
          -82 callgsubr
          151.02000427246094 -86 callgsubr
          14 callgsubr
          hintmask 11101111
          806.9900054931641 1833.979995727539 rmoveto
          -69 callsubr
          hintmask 11110111
          43 callgsubr
          -301 137 -57 rlineto
          hintmask 11101111
          111 callgsubr
          18 -1072.990005493164 rmoveto
          -160 vlineto
          -106 callsubr
          -491.99000549316406 vlineto
          endchar
        </CharString>
        <CharString name="Gcommaaccent">
          132 -559.9900054931641 43 501 169.97999572753906 440.50001525878906 166.5 602.989990234375 173.99000549316406 hstem
          98.97000122070312 231 426.02000427246094 42 callgsubr
          157.99998474121094 214.99000549316406 vstem
          825 761 rmoveto
          -160 vlineto
          -106 callsubr
          -491.99000549316406 vlineto
          22 -843 rmoveto
          -8 callgsubr
          -20.009994506835938 -24 vhcurveto
          -7 callsubr
          vlineto
          75 -41 rlineto
          110 callgsubr
          173 callgsubr
          -47.97999572753906 78 -49 23 vhcurveto
          endchar
        </CharString>
        <CharString name="Gdotaccent">
          -82 callgsubr
          131.02000427246094 -64 callgsubr
          98.97000122070312 231 329.00999450683594 299 144 214.99000549316406 hintmask 11101111
          797.9799957275391 1669 rmoveto
          83 77 62 92 hvcurveto
          hintmask 11110111
          152 callgsubr
          hintmask 11101111
          193 callsubr
          243 callgsubr
          -908 rmoveto
          -160 vlineto
          -106 callsubr
          -491.99000549316406 vlineto
          endchar
        </CharString>
        <CharString name="Gtilde">
          -82 callgsubr
          123.00999450683594 24 callsubr
          14 callgsubr
          hintmask 00000000
          hintmask 11101110
          651 1804.979995727539 rmoveto
          hintmask 11110110
          104 57 callsubr
          -144 158 -19 callgsubr
          hintmask 11101110
          -102.00999450683594 -30.990005493164062 139.02000427246094 -158 hhcurveto
          -107 -128 -81 69 callgsubr
          -47 hvcurveto
          201 callgsubr
          -68 rlineto
          45 41 62 57 72 hhcurveto
          hintmask 11110110
          174 -1043.990005493164 rmoveto
          -160 vlineto
          -106 callsubr
          -491.99000549316406 vlineto
          endchar
        </CharString>
        <CharString name="H">
          251 0 43 639.9799957275391 172 626.0500030517578 210 callgsubr
          717.989990234375 223 vstem
          -79 callsubr
          1521.990005493164 37 callgsubr
        </CharString>
        <CharString name="Hbar">
          262 0 43 630.9900054931641 170.99000549316406 219.99998474121094 142 -142 457.00999450683594 87 callgsubr
          729 131 callsubr
          hintmask 11101100
          1558 1206.990005493164 rmoveto
          -189 hlineto
          hintmask 11011100
          315 240 callgsubr
          vlineto
          hintmask 11101100
          -315 -729 vlineto
          hintmask 11011100
          315 -223 vlineto
          hintmask 11101100
          -315 -186 -142 186 -1064.979995727539 223 674 729 -674 131 callsubr
          1064.979995727539 189 142 vlineto
          -412 -362 rmoveto
          -729 220 729 -220 hlineto
          endchar
        </CharString>
        <CharString name="Hcircumflex">
          251 0 43 639.9799957275391 172 626.0500030517578 126 callgsubr
          193.99000549316406 223 717.989990234375 223 hintmask 00000000
          hintmask 11110111
          418 95 callsubr
          hintmask 11101111
          -69 callsubr
          hintmask 11110111
          243 callsubr
          -301 rlineto
          hintmask 11101111
          -224 -167 37 callgsubr
        </CharString>
        <CharString name="I">
          46 callsubr
          -6 callgsubr
          225.99000549316406 vstem
          5 callgsubr
          -71 callsubr
          endchar
        </CharString>
        <CharString name="I.uc">
          -57 callsubr
        </CharString>
        <CharString name="IJ">
          52 46 callsubr
          -6 callgsubr
          225.99000549316406 474.99998474121094 226.00999450683594 vstem
          5 callgsubr
          -71 callsubr
          391 -1736.990005493164 -78 callsubr
        </CharString>
        <CharString name="IJ_acutecomb">
          52 -91 callsubr
          133 43 -33 43 hstemhm
          25 callgsubr
          474.99998474121094 226.00999450683594 hintmask 11011100
          34 callgsubr
          1664.979995727539 rmoveto
          8 callgsubr
          105 callgsubr
          -331 -296 -7 -6 rlinecurve
          hintmask 11101100
          701.0099945068359 -10 rmoveto
          93 -92 115 41 188 138 93 95 rlinecurve
          105 callgsubr
          -331 -296 -7 -6 rlinecurve
          -687 -133 -71 callsubr
          391 -1736.990005493164 -78 callsubr
        </CharString>
        <CharString name="Iacute">
          -91 callsubr
          143 43 231 callgsubr
          vstem
          34 callgsubr
          1664.979995727539 rmoveto
          8 callgsubr
          105 callgsubr
          -331 -296 -7 -6 rlinecurve
          48 callsubr
          205 callsubr
          -71 callsubr
          endchar
        </CharString>
        <CharString name="Ibreve">
          -91 callsubr
          109.989990234375 172.99000549316406 231 callgsubr
          vstem
          -55 callsubr
          143 callgsubr
          238 callsubr
          126.99000549316406 -157 231 hhcurveto
          220.02000427246094 139 72 callsubr
          -152.97999572753906 hlineto
          131 callgsubr
          -448 -71 callsubr
          endchar
        </CharString>
        <CharString name="Icircumflex">
          91 callsubr
          25 callgsubr
          hintmask 00000000
          hintmask 11101100
          -37 95 callsubr
          hintmask 11011100
          -69 callsubr
          hintmask 11101100
          -258.97999572753906 -301 rlineto
          hintmask 11011100
          244 -167 -71 callsubr
          endchar
        </CharString>
        <CharString name="Idieresis">
          -91 callsubr
          145 174 callsubr
          -75 296.97999572753906 -14.989990234375 -42 callgsubr
          -12.000015258789062 297 hintmask 00000000
          hintmask 11110100
          -75 121 callgsubr
          170 callsubr
          -41 callgsubr
          -80 154 callgsubr
          495.97999572753906 hmoveto
          -82 63 -51 74.02000427246094 -41 callgsubr
          -30 callsubr
          -80 195 callsubr
          hintmask 11101000
          -214 -278 -71 callsubr
          endchar
        </CharString>
        <CharString name="Idotaccent">
          -57 callsubr
        </CharString>
        <CharString name="Igrave">
          -91 callsubr
          143 43 231 callgsubr
          vstem
          357.99000549316406 123 callsubr
          92 135 callsubr
          -145.97999572753906 -133 76.97999572753906 -87 223 -153 97 -34 rlinecurve
          -151 -51 -71 callsubr
          endchar
        </CharString>
        <CharString name="Imacron">
          -91 callsubr
          206.989990234375 161.99000549316406 231 callgsubr
          vstem
          -10 callgsubr
          27 callgsubr
          157 -368.99000549316406 -71 callsubr
          endchar
        </CharString>
        <CharString name="Iogonek">
          -512 148 364 -83 callgsubr
          hstemhm
          42.99000549316406 216 -52 122 callgsubr
          hintmask 11110000
          396.97999572753906 -363.99000549316406 rmoveto
          -70 -12 callgsubr
          219 callgsubr
          -2 97 47 84.99000549316406 104 66 rrcurveto
          hintmask 11101000
          25 22 callsubr
          -78 callgsubr
          hlineto
          hintmask 11110000
          34 151 callgsubr
          2 114 242 callgsubr
          150 hhcurveto
          -21 callgsubr
          86 31 callgsubr
          -22 callsubr
          -50 165 callsubr
          -45.02000427246094 hhcurveto
          endchar
        </CharString>
        <CharString name="Itilde">
          103 callgsubr
          25 callgsubr
          hintmask 00000000
          hintmask 11011000
          -95 1770.990005493164 rmoveto
          201 callgsubr
          -68 rlineto
          45 40.97999572753906 62 57 -30 callgsubr
          hhcurveto
          hintmask 11101000
          104 31.009994506835938 127 callsubr
          111 callsubr
          hvcurveto
          -86 86 callsubr
          -18 callgsubr
          -55 -73.00999450683594 hhcurveto
          hintmask 11011000
          -101.99000549316406 -31 46 callgsubr
          hintmask 11101000
          302 -249 -71 callsubr
          endchar
        </CharString>
        <CharString name="J">
          -588 1481.0299987792969 122 callsubr
          267.97999572753906 226.00999450683594 vstem
          -42 -215 -78 callsubr
        </CharString>
        <CharString name="Jcircumflex">
          -588 1481.0299987792969 126 callgsubr
          267.97999572753906 226.00999450683594 hintmask 00000000
          hintmask 11011000
          17.979995727539062 33 callsubr
          hintmask 10111000
          -69 callsubr
          hintmask 11011000
          43 callgsubr
          -301 rlineto
          -59.97999572753906 -1903.979995727539 rmoveto
          182 callsubr
          -117 rlineto
          hintmask 10111000
          169 26.009994506835938 234 130 callsubr
          46 261 rrcurveto
          27 146 -7.9900054931640625 181.99000549316406 199 vvcurveto
          909 -226.02000427246094 12 callgsubr
          hintmask 11011000
          -43 -156.97999572753906 -128.97999572753906 -86.02000427246094 -106 -37.99000549316406 rrcurveto
          endchar
        </CharString>
        <CharString name="K">
          70 0 43 1438.0299987792969 210 callgsubr
          -40 callgsubr
          endchar
        </CharString>
        <CharString name="Kcommaaccent">
          70 -19 callsubr
          43 1438.0299987792969 210 callgsubr
          227 188 -40 callgsubr
          -502 -192 rmoveto
          78 callsubr
          -7 callsubr
          vlineto
          75 -41 rlineto
          62 -63 callgsubr
          endchar
        </CharString>
        <CharString name="L">
          -221 0 -23 callgsubr
          vstem
          -79 callsubr
          1521.990005493164 127 callgsubr
        </CharString>
        <CharString name="Lacute">
          -221 0 -75 callgsubr
          1306.0500030517578 -102 callgsubr
          143 43 hstem
          -79 callsubr
          228 vstem
          177.99000549316406 -59 callsubr
          -331 -296 -7 -6 rlinecurve
          16 205 callsubr
          127 callgsubr
        </CharString>
        <CharString name="Lcaron">
          -221 0 -23 callgsubr
          353.989990234375 196.99000549316406 vstem
          735.9900054931641 108 callsubr
          61.99000549316406 198 callgsubr
          -18 -48 callsubr
          -22 callsubr
          113 callsubr
          -27 -48 -21.009994506835938 -76 vhcurveto
          8 -28 rlineto
          -542 454 127 callgsubr
        </CharString>
        <CharString name="Lcommaaccent">
          -221 -19 callsubr
          -23 callgsubr
          132.989990234375 188 vstem
          -79 callsubr
          1521.990005493164 -53 callsubr
          322 -2040.990005493164 rmoveto
          2 callsubr
          -7 callsubr
          vlineto
          endchar
        </CharString>
        <CharString name="Ldot">
          56 0 -75 callgsubr
          509.010009765625 326 471.0399932861328 122 callsubr
          -79 callsubr
          228 483 129 callsubr
          vstem
          -79 callsubr
          1521.990005493164 -53 callsubr
          711 -686 rmoveto
          -88 -76 callsubr
          213 callgsubr
          -64 76 hhcurveto
          86 79.02000427246094 76 99 -3.0200042724609375 hvcurveto
          81 -2 -49.99000549316406 70 0 callsubr
          hhcurveto
          -82.99000549316406 159 callsubr
          75 callsubr
          -56 callsubr
          2 hvcurveto
          endchar
        </CharString>
        <CharString name="Lslash">
          -221 0 -23 callgsubr
          vstem
          421.99000549316406 -75 callgsubr
          rmoveto
          522.0200042724609 vlineto
          443 162 -53 138 -390 -144 rlineto
          669 -228 -753.0099945068359 vlineto
          -176 -64.97999572753906 53 -136 123 45 rlineto
          -612.9900054931641 832 -75 callgsubr
          -604 vlineto
          endchar
        </CharString>
        <CharString name="M">
          124 callsubr
          hstemhm
          133.97999572753906 1656.009994506836 hintmask 00111000
          164 callsubr
          137 callsubr
          hintmask 01011000
          134 callsubr
          hintmask 10011000
          55 callgsubr
          hintmask 00111000
          6 callsubr
        </CharString>
        <CharString name="N">
          206 callsubr
          hstem
          73 callgsubr
          vstem
          1157.979995727539 137 callsubr
          -977 vlineto
          -96 callgsubr
          hlineto
          endchar
        </CharString>
        <CharString name="NULL">
          -1301 endchar
        </CharString>
        <CharString name="Nacute">
          206 callsubr
          143 43 hstem
          73 callgsubr
          vstem
          1152.979995727539 156 callsubr
          105 callgsubr
          -331 -296 -7 -6 rlinecurve
          8 callgsubr
          5 -325 rmoveto
          -977 vlineto
          -96 callgsubr
          hlineto
          endchar
        </CharString>
        <CharString name="Ncaron">
          206 callsubr
          147.989990234375 43 -43 146 220 callgsubr
          hintmask 00000000
          hintmask 11011100
          891.9900054931641 1669.979995727539 rmoveto
          242 263 100 callgsubr
          135 callgsubr
          hintmask 11101100
          197 hlineto
          266 -147.99000549316406 rmoveto
          -977 vlineto
          -96 callgsubr
          hlineto
          endchar
        </CharString>
        <CharString name="Ncommaaccent">
          255 -19 callsubr
          -83 callgsubr
          hstem
          34 callgsubr
          205 297 188 275 205 vstem
          1157.979995727539 137 callsubr
          -977 vlineto
          -96 callgsubr
          hlineto
          -372 -1603.990005493164 rmoveto
          -157.99000549316406 93 callgsubr
          -7 callsubr
          vlineto
          75 -41 rlineto
          62 -63 callgsubr
          endchar
        </CharString>
        <CharString name="Ntilde">
          255 103 callgsubr
          34 callgsubr
          205 760 205 hintmask 00000000
          hintmask 11011100
          635.9900054931641 1804.979995727539 rmoveto
          hintmask 11101100
          104 31.009994506835938 44 callsubr
          -101.99000549316406 165 callgsubr
          46 callgsubr
          84.99000549316406 -68 rlineto
          45 41 62 57 -30 callgsubr
          hhcurveto
          hintmask 11101100
          522 -282.99000549316406 rmoveto
          -977 vlineto
          -96 callgsubr
          hlineto
          endchar
        </CharString>
        <CharString name="O">
          -73 callgsubr
          hstem
          -61 callsubr
          vstem
          99.97999572753906 771.9900054931641 -105 callgsubr
        </CharString>
        <CharString name="OE">
          762 -99 callsubr
          167.97999572753906 -151.989990234375 -81 callsubr
          -153 169 hstemhm
          99.97999572753906 224 716.010009765625 131 callsubr
          hintmask 01110110
          1262.979995727539 -75 callgsubr
          rmoveto
          523.0200042724609 479 172 -479 479.99000549316406 653 172 -876 -24 vlineto
          hintmask 10101110
          -78 34 -89 8 -68 -2 -409 -13.990005493164062 -285.97999572753906 -253 -10.020004272460938 -502 -70 callsubr
          -454.99000549316406 263.97999572753906 -338 420 62 callgsubr
          113.00999450683594 -22 callgsubr
          80 25 72 40 rrcurveto
          hintmask 01110110
          -51 236 callgsubr
          -726.0200042724609 vlineto
          hintmask 10101110
          -478.99000549316406 -23 rmoveto
          -302 -158 285 321 425 226 186 250 99 78 -19 -40.99000549316406 63 hvcurveto
          -1077 vlineto
          -54 -69 -87 -7 callsubr
          -100 hhcurveto
          endchar
        </CharString>
        <CharString name="Oacute">
          -73 callgsubr
          225 callsubr
          hstem
          -61 callsubr
          vstem
          680 -59 callsubr
          -331.02000427246094 -296 68 callgsubr
          -6 rlinecurve
          -580.0200042724609 -892.9900054931641 -105 callgsubr
        </CharString>
        <CharString name="Obreve">
          -73 callgsubr
          94 158 callgsubr
          -61 callsubr
          vstem
          465.97999572753906 17 callsubr
          -366 -1198 -105 callgsubr
        </CharString>
        <CharString name="Ocircumflex">
          -73 callgsubr
          151.010009765625 43 -39.99000549316406 43 98.97999572753906 155.99000549316406 172 callgsubr
          hintmask 00000000
          hintmask 11101110
          449.99000549316406 33 callsubr
          hintmask 11011110
          216 -202 143.99000549316406 60 -262 297.97999572753906 rlineto
          -197 hlineto
          hintmask 11101110
          43 callgsubr
          -301 rlineto
          hintmask 11011110
          -350 -917 -105 callgsubr
        </CharString>
        <CharString name="Odieresis">
          -73 callgsubr
          129.010009765625 174 callsubr
          99.97999572753906 225 87.010009765625 194 callgsubr
          38.010009765625 -42 callgsubr
          hintmask 11111010
          412 33 callgsubr
          hintmask 11111110
          495.99000549316406 hmoveto
          -82 63.02000427246094 -51 74 -41 callgsubr
          -70 callgsubr
          153 callsubr
          -808 -1028 4 callsubr
          -461 266 -335.99000549316406 421 9.020004272460938 rrcurveto
          hintmask 11111010
          -68 callgsubr
          rrcurveto
          472 9 -266 304.99000549316406 -403.99000549316406 hhcurveto
          hintmask 11111110
          -386 -312 -257.97999572753906 -508.00999450683594 -10.020004272460938 hvcurveto
          hintmask 11111010
          1143.009994506836 hmoveto
          -402 -181 -215 -277 -304 -156 287 315.99000549316406 417.00999450683594 218.99000549316406 192.99000549316406 257 292 150 -276.99000549316406 -319 vhcurveto
          endchar
        </CharString>
        <CharString name="Ograve">
          -73 callgsubr
          225 callsubr
          hstem
          -61 callsubr
          vstem
          844.9799957275391 29 callgsubr
          -745 -801 -105 callgsubr
        </CharString>
        <CharString name="Ohungarumlaut">
          -73 callgsubr
          103 43 hstem
          -61 callsubr
          vstem
          448.97999572753906 38 callgsubr
          -172 87 -5 -13 -195 114 callsubr
          78 46.02000427246094 105 115 71 149 callgsubr
          -817.0099945068359 -938 -105 callgsubr
        </CharString>
        <CharString name="Omacron">
          -73 callgsubr
          191 196 callsubr
          99.97999572753906 225 212 547 159.010009765625 -42 callgsubr
          vstem
          536.9900054931641 27 callgsubr
          -437 -1118.990005493164 -105 callgsubr
        </CharString>
        <CharString name="Oslash">
          -73 callgsubr
          hstem
          -61 callsubr
          vstem
          1106.979995727539 1472 rmoveto
          83.00999450683594 229.99000549316406 244 callsubr
          36 -80 -221 rlineto
          13.990005493164062 68 callsubr
          -59 7 -63 hhcurveto
          -386 -312 -257.97999572753906 -508.00999450683594 -10.020004272460938 hvcurveto
          -6 -330 134 -266.02000427246094 231.02000427246094 -121 -30 callsubr
          -218.99000549316406 rcurveline
          125.00999450683594 -36 75 217 callsubr
          60.99000549316406 -16.979995727539062 66.00999450683594 43 callsubr
          71 2 rlinecurve
          -68 callgsubr
          7 342 -139 255 -230.02000427246094 114.02000427246094 rrcurveto
          -781.9900054931641 -714.0200042724609 rmoveto
          417.00999450683594 218.99000549316406 192.99000549316406 257 45 41 -6 -12.990005493164062 38 vhcurveto
          -398 -1105 rlineto
          -134 109 -68 196 209 vvcurveto
          460 -603 rmoveto
          -52 -48 -43 callsubr
          16.020004272460938 -43 hvcurveto
          399.00999450683594 1108.990005493164 rlineto
          134 -105 68 -196 -215 vvcurveto
          -402 -181 -215 -277 vhcurveto
          endchar
        </CharString>
        <CharString name="Otilde">
          -73 callgsubr
          123 165.99000549316406 -21.990005493164062 161 172 callgsubr
          hintmask 00000000
          hintmask 11011100
          391.99000549316406 207 callgsubr
          40.99000549316406 62 57 -30 callgsubr
          hhcurveto
          hintmask 11101100
          214 callgsubr
          57 callsubr
          -144 158 -19 callgsubr
          hintmask 11011100
          7 callgsubr
          hintmask 11101100
          -292 -999 -105 callgsubr
        </CharString>
        <CharString name="P">
          -31 0 43 478.99000549316406 164 692 -37 callsubr
          -56.95001220703125 233 callgsubr
          223 556.989990234375 222 hintmask 00000000
          hintmask 11011100
          -79 callsubr
          1521.990005493164 106 callsubr
          hintmask 11101100
          221 callgsubr
          hintmask 11011100
          80 callsubr
          hintmask 11101100
          117 callgsubr
          hintmask 11011100
          189 callsubr
        </CharString>
        <CharString name="Q">
          268 -293.99000549316406 180.97999572753906 97.02000427246094 43 -43 170.99000549316406 1212.979995727539 170 172 callgsubr
          hintmask 11011100
          1326.979995727539 -113 rmoveto
          -128.99000549316406 -133.02000427246094 36 89.97999572753906 -86 hvcurveto
          285 82 197 251 8 415.00999450683594 rrcurveto
          472 9 -266 304.99000549316406 -403.99000549316406 hhcurveto
          -386 -312 -257.97999572753906 -508.00999450683594 -10.020004272460938 123 callgsubr
          -457.00999450683594 261 -333.99000549316406 415.00999450683594 3.0200042724609375 rrcurveto
          -225.02000427246094 168 182 -52.99000549316406 210.99000549316406 hhcurveto
          76 76 18.990005493164062 21.020004272460938 31 hvcurveto
          -37 callsubr
          vlineto
          -16 -46 -86.02000427246094 -3 -52 hhcurveto
          hintmask 10111100
          -1001.9900054931641 870.9900054931641 rmoveto
          417.00999450683594 218.99000549316406 192.99000549316406 257 292 150 -276.99000549316406 -319 -402 -181 -215 -277 -304 -156 287 315.99000549316406 vhcurveto
          endchar
        </CharString>
        <CharString name="R">
          38 callsubr
          87 callgsubr
          552 228 hintmask 11101100
          1245 111.97999572753906 -47 callsubr
          hintmask 11011100
          -77 callgsubr
          hintmask 11101100
          -92 callsubr
          endchar
        </CharString>
        <CharString name="Racute">
          38 callsubr
          143 43 87 callgsubr
          552 228 hintmask 11101110
          1070.979995727539 156 callsubr
          -145.99000549316406 133 124 callgsubr
          -13 -331 -296 -7 -6 rlinecurve
          8 callgsubr
          174.02000427246094 -1735 -47 callsubr
          hintmask 11011110
          -77 callgsubr
          hintmask 11101110
          -92 callsubr
          endchar
        </CharString>
        <CharString name="Rcaron">
          38 callsubr
          98 callsubr
          193.99000549316406 223 552 228 hintmask 00000000
          hintmask 11100111
          129 callgsubr
          1669.979995727539 rmoveto
          242.02000427246094 263 241 callsubr
          135 callgsubr
          hintmask 11101011
          197 hlineto
          435.02000427246094 -1558 -47 callsubr
          hintmask 11011011
          -77 callgsubr
          hintmask 11101011
          -92 callsubr
          endchar
        </CharString>
        <CharString name="Rcommaaccent">
          66 -19 callsubr
          56 callsubr
          87 callgsubr
          223.989990234375 188 140.010009765625 228 hintmask 11110111
          1245 111.97999572753906 -47 callsubr
          hintmask 11101111
          -77 callgsubr
          hintmask 11110111
          -92 callsubr
          315 -887.9900054931641 92 callgsubr
          -20.009994506835938 -24 vhcurveto
          -7 callsubr
          vlineto
          75 -41 rlineto
          61.99000549316406 108 callgsubr
        </CharString>
        <CharString name="S">
          1 callsubr
          hstem
          23 callsubr
          vstem
          128 70.97999572753906 -104 callsubr
        </CharString>
        <CharString name="Sacute">
          1 callsubr
          225 callsubr
          hstem
          23 callsubr
          vstem
          474.99000549316406 -59 callsubr
          -331 -296 -7 -6 rlinecurve
          -346.99000549316406 -1594 -104 callsubr
        </CharString>
        <CharString name="Scaron">
          1 callsubr
          132 43 -43 146 hstemhm
          23 callsubr
          hintmask 11101100
          259.99000549316406 13 callsubr
          hintmask 11011100
          -9 callsubr
          rlineto
          hintmask 11101100
          28 callsubr
          rlineto
          -131.99000549316406 -1859.009994506836 -104 callsubr
        </CharString>
        <CharString name="Scedilla">
          -169 39 callgsubr
          293.00999450683594 -52 callgsubr
          1201.990005493164 175 hstem
          49 callsubr
          91 callgsubr
          162.99998474121094 163 179.010009765625 218.99000549316406 vstem
          1061.990005493164 397.99000549316406 rmoveto
          238 -225 125.00999450683594 -196.02000427246094 100.99000549316406 vhcurveto
          -218.99000549316406 113.00999450683594 -35 callsubr
          53 149 vvcurveto
          131 146 54.99000549316406 147 callgsubr
          163.99000549316406 78.00999450683594 -37.99000549316406 -42 70 vhcurveto
          45 176 rlineto
          34 -53 -117 45 -184 hhcurveto
          -246.99000549316406 -259.02000427246094 -99 -292 -220 192 -146 189 -92 hvcurveto
          214 -104 123 -63 -150 vvcurveto
          -150.02000427246094 -112 -18 callgsubr
          -191 -139 -145 47 46 -75.02000427246094 vhcurveto
          -52.97999572753906 -183 50 callsubr
          35 callgsubr
          145 -44.99000549316406 176 -70 callsubr
          rlinecurve
          -25 callsubr
          201 callgsubr
          -70 callsubr
          89 callsubr
          -7 callsubr
          53 rrcurveto
          255.02000427246094 22.990005493164062 172 132 256 vvcurveto
          endchar
        </CharString>
        <CharString name="Scircumflex">
          1 callsubr
          151.010009765625 -86 callgsubr
          23 callsubr
          hintmask 00000000
          hintmask 11101110
          217 callgsubr
          33 callsubr
          hintmask 11011110
          -69 callsubr
          hintmask 11101110
          43 callgsubr
          -301 rlineto
          hintmask 11011110
          -116.97999572753906 -1618 -104 callsubr
        </CharString>
        <CharString name="Scommaaccent">
          -159 -559.9900054931641 43 501 63 callgsubr
          1201.979995727539 175 hstem
          215 callgsubr
          213 173 188 144 218.99000549316406 vstem
          133 70.97999572753906 rmoveto
          -35 53.99000549316406 173.02000427246094 -51.970001220703125 199.99000549316406 hhcurveto
          298 209 131.99000549316406 281.99000549316406 238 -225 125.00999450683594 -196 100.99000549316406 hvcurveto
          -219 113.00999450683594 -83.99000549316406 53 149 vvcurveto
          131 145.99000549316406 54.99000549316406 147 callgsubr
          164 89 callsubr
          -37.99000549316406 -42 70 vhcurveto
          45 176 rlineto
          34 -53 -116.99000549316406 45 -184 hhcurveto
          -246.99000549316406 43 callgsubr
          -99 -292 -220 192 -146 189 -92 hvcurveto
          214 -104 123 -63 -150 vvcurveto
          -150.02000427246094 -112 -18 callgsubr
          -191 -139 -145 47 46 -75 vhcurveto
          -53 -183 rlineto
          344 -589.9799957275391 rmoveto
          11 callgsubr
          -7 callsubr
          vlineto
          endchar
        </CharString>
        <CharString name="T">
          2 0 160 callsubr
          537.9900054931641 1349.979995727539 -24 callsubr
          endchar
        </CharString>
        <CharString name="Tbar">
          2 0 43 607.9900054931641 144.99000549316406 553.9999847412109 172 hstem
          98 callgsubr
          vstem
          1239.979995727539 1349.979995727539 rmoveto
          172 -1176.990005493164 144 callgsubr
          -553.9900054931641 -288.99000549316406 -145 288.99000549316406 -651 225 651 296 145 -296 553.9900054931641 477 vlineto
          endchar
        </CharString>
        <CharString name="Tcaron">
          246 callsubr
          148 43 -43 146 hstemhm
          98 callgsubr
          hintmask 11101000
          299.99000549316406 13 callsubr
          hintmask 11011000
          242 263 -120 136 callgsubr
          hintmask 11101000
          28 callsubr
          rlineto
          238 -580.0099945068359 -24 callsubr
          endchar
        </CharString>
        <CharString name="Thorn">
          -39 0 43 241.99000549316406 -17 callgsubr
          652.0099945068359 -37 callsubr
          222.04998779296875 210 callgsubr
          543.0099945068359 221.97999572753906 vstem
          649.9900054931641 1258.990005493164 rmoveto
          -84 181 callgsubr
          -7 -5 -71 hvcurveto
          275 -223 164 callgsubr
          291.97999572753906 vlineto
          -77 callsubr
          40 58 -5 86 hhcurveto
          379 202 186.99000549316406 321 317.00999450683594 -186 148.99000549316406 -345.99000549316406 hvcurveto
          -71 -811.9900054931641 rmoveto
          -51 -51 1 -43 callsubr
          -60 hvcurveto
          626.0099945068359 vlineto
          -10 callgsubr
          11.990005493164062 56.02000427246094 3 53 2 rrcurveto
          258.99000549316406 -43 callsubr
          125.00999450683594 179 callsubr
          -221 vvcurveto
          -291 -180.02000427246094 -52 -200.99000549316406 vhcurveto
          endchar
        </CharString>
        <CharString name="U">
          -76 callgsubr
          hstem
          -23 callsubr
          vstem
          34 callsubr
          633 -104 callgsubr
        </CharString>
        <CharString name="Uacute">
          -76 callgsubr
          143 43 hstem
          -23 callsubr
          vstem
          616.9799957275391 1664.979995727539 rmoveto
          8 callgsubr
          -145.97999572753906 133 124 callgsubr
          -13 -331 -296 -7 -6 rlinecurve
          -458 -1031.990005493164 -104 callgsubr
        </CharString>
        <CharString name="Ubreve">
          -76 callgsubr
          109.989990234375 158 callgsubr
          -23 callsubr
          vstem
          402.97999572753906 143 callgsubr
          -99 callsubr
          127 -157 231 hhcurveto
          220.02000427246094 143 callsubr
          -149.02000427246094 hlineto
          -24 -1 -77 callsubr
          -141 -190 hhcurveto
          -190 194 callsubr
          -244 -1337 -104 callgsubr
        </CharString>
        <CharString name="Ucircumflex">
          162 -15.990005493164062 173.97999572753906 1323.0400085449219 126 callgsubr
          34 callsubr
          222 701.989990234375 222 hintmask 00000000
          hintmask 11101110
          386.99000549316406 95 callsubr
          hintmask 11011110
          216 -202 147 callgsubr
          60 -262 297.97999572753906 rlineto
          -197.02000427246094 hlineto
          hintmask 11101110
          243 callsubr
          -301 rlineto
          hintmask 11011110
          -228 -1055.990005493164 -104 callgsubr
        </CharString>
        <CharString name="Udieresis">
          -76 callgsubr
          145 174 callsubr
          34 callsubr
          222 -32 296.97999572753906 199.00999450683594 297 -59 222 hintmask 00000000
          hintmask 11101100
          349 121 callgsubr
          74 84 75.99000549316406 -8 callsubr
          -94 -80 -79 195 callsubr
          495.99000549316406 hmoveto
          -82 63 -51 74.02000427246094 -36 callsubr
          -54 callgsubr
          -94 -79 153 callsubr
          hintmask 11110010
          -686 -1166.990005493164 -104 callgsubr
        </CharString>
        <CharString name="Ugrave">
          -76 callgsubr
          143 43 hstem
          -23 callsubr
          vstem
          781.9900054931641 123 callsubr
          92 71 callsubr
          77 -87 223 -153 97 -34 rlinecurve
          -623 -939.9900054931641 -104 callgsubr
        </CharString>
        <CharString name="Uhungarumlaut">
          -76 callgsubr
          118.989990234375 43 hstem
          -23 callsubr
          vstem
          385.99000549316406 38 callgsubr
          -171.99000549316406 87 124 callgsubr
          -13 -194.99000549316406 114 callsubr
          78.00999450683594 46.02000427246094 105 115 71 77 callgsubr
          rlinecurve
          -163 88 124 callgsubr
          -12 -203 -263 -7.9900054931640625 68 callgsubr
          rlinecurve
          -695.0099945068359 -1077 -104 callgsubr
        </CharString>
        <CharString name="Umacron">
          -76 callgsubr
          206.989990234375 196 callsubr
          34 callsubr
          222 92.989990234375 547 62 222 vstem
          473.99000549316406 27 callgsubr
          -315 -1257.979995727539 -104 callgsubr
        </CharString>
        <CharString name="Uogonek">
          162 155 callgsubr
          173.97999572753906 1323.0400085449219 122 callsubr
          34 callsubr
          222 188 216 297.989990234375 222 vstem
          1082.979995727539 137 callsubr
          -836 vlineto
          -419 -128.99000549316406 -109.02000427246094 -206 -234 -133 108.00999450683594 420 vhcurveto
          1 836 rlineto
          -223 -889 hlineto
          -412 -1 165 -236.99000549316406 418 hhcurveto
          8 hlineto
          -104 -68.02000427246094 -30 callsubr
          -126 3 -92 rrcurveto
          -137 1 104.97999572753906 -73 107 callsubr
          214 callsubr
          -49.99000549316406 234 callsubr
          -70 -56.02000427246094 18.990005493164062 -45 callsubr
          -77 callsubr
          hvcurveto
          -2 75.99000549316406 60 106 93 85.99000549316406 rrcurveto
          249 69 120 216 336 vvcurveto
          892 -222 vlineto
          endchar
        </CharString>
        <CharString name="Uring">
          162 -99 callsubr
          173.97999572753906 1277.000015258789 -11 callsubr
          -79.95001220703125 -102 callgsubr
          323.989990234375 124 hstemhm
          34 callsubr
          222 43 118 callsubr
          17.999984741210938 222 hintmask 00000000
          hintmask 11011111
          424 191 callgsubr
          172 150 81 191 -22 callgsubr
          hvcurveto
          171 1 -127 92 -194.99000549316406 hhcurveto
          199 callgsubr
          -161 107 callgsubr
          -62 82 callgsubr
          95 -1 74 -46 -93 vvcurveto
          hintmask 10111001
          -752 -1072.990005493164 -104 callgsubr
        </CharString>
        <CharString name="Utilde">
          -76 callgsubr
          138.989990234375 165.99000549316406 -21.990005493164062 161 192 callgsubr
          hintmask 00000000
          hintmask 11011100
          328.99000549316406 1770.990005493164 rmoveto
          84.99000549316406 -68 rlineto
          45 41 110 callgsubr
          57 -30 callgsubr
          hhcurveto
          hintmask 11101100
          104 31 44 callsubr
          -102 -31 46 callgsubr
          hintmask 11101100
          -170 -42 callsubr
          -104 callgsubr
        </CharString>
        <CharString name="V">
          54 -13 43 1451.0299987792969 122 callsubr
          22 1310.979995727539 vstem
          22 137 callsubr
          569 -1534.990005493164 rlineto
          187 hlineto
          554.9900054931641 1534.990005493164 rlineto
          -233.99000549316406 hlineto
          -344 -1024 -69 -235 168 callsubr
          235 -360 1024 rlineto
          -237 hlineto
          endchar
        </CharString>
        <CharString name="W">
          -28 callgsubr
          hstemhm
          22 1874 hintmask 10110000
          1671.990005493164 1521.990005493164 223 callsubr
          hintmask 01110000
          -99 callgsubr
          hintmask 10110000
          -224 hlineto
          endchar
        </CharString>
        <CharString name="Wacute">
          -28 callgsubr
          143 43 hstemhm
          22 1874 hintmask 10111000
          1320.979995727539 156 callsubr
          -145.99000549316406 133 124 callgsubr
          -13 -331 -296 -6.9799957275390625 -6 rlinecurve
          93 -92 115 41 42 callgsubr
          138 93 95 rlinecurve
          351 -325 223 callsubr
          hintmask 01111000
          -99 callgsubr
          hintmask 10111000
          -224 hlineto
          endchar
        </CharString>
        <CharString name="Wcircumflex">
          617 -15.990005493164062 43 -43 271.99000549316406 1225.0299987792969 126 callgsubr
          22 1874 hintmask 10101110
          960 1833.979995727539 rmoveto
          213 callsubr
          -202 147 callgsubr
          60 -262 297.97999572753906 rlineto
          -197 hlineto
          hintmask 10110110
          43 callgsubr
          -301 136.99000549316406 -57 rlineto
          hintmask 10101110
          221.02999877929688 202 rlineto
          711.9900054931641 -311.99000549316406 223 callsubr
          hintmask 01101110
          -99 callgsubr
          hintmask 10101110
          -224 hlineto
          endchar
        </CharString>
        <CharString name="Wdieresis">
          -28 callgsubr
          145 174 callsubr
          563.9900054931641 194 callgsubr
          hintmask 10111100
          700.9900054931641 1666.990005493164 rmoveto
          3 callsubr
          64 callgsubr
          -79 155 callsubr
          170 callsubr
          hvcurveto
          496 hmoveto
          -41 callgsubr
          -79 159 callsubr
          155 callsubr
          74.02000427246094 hvcurveto
          475 -145 223 callsubr
          hintmask 01111100
          -99 callgsubr
          hintmask 10111100
          -224 hlineto
          endchar
        </CharString>
        <CharString name="Wgrave">
          -28 callgsubr
          143 43 hstemhm
          22 1874 hintmask 10111000
          996.9900054931641 123 callsubr
          92 92 68 callgsubr
          6 -331.02000427246094 296 -5 13 rlinecurve
          -146 -133 77 -87 223 -153 97 -34 rlinecurve
          675 -51 223 callsubr
          hintmask 01111000
          -99 callgsubr
          hintmask 10111000
          -224 hlineto
          endchar
        </CharString>
        <CharString name="X">
          13 -91 callsubr
          -39.96000671386719 32 callsubr
          42.99000549316406 1229 hintmask 10110000
          785 753.9900054931641 rmoveto
          hintmask 11010000
          477 768 rlineto
          -239 hlineto
          -356 -604 -123 201.99000549316406 rlineto
          hintmask 10110000
          -247.99000549316406 403.00999450683594 -251 -1 478 -736.0099945068359 -480.00999450683594 -785.9799957275391 rlineto
          239 hlineto
          262 448 101.00999450683594 170.99000549316406 104 -170.99000549316406 269 -448 rlineto
          254 hlineto
          -487 753.9900054931641 rlineto
          endchar
        </CharString>
        <CharString name="Y">
          -37 46 callsubr
          522.9900054931641 -42 callgsubr
          vstem
          1241.990005493164 1521.990005493164 -88 callgsubr
        </CharString>
        <CharString name="Yacute">
          -37 -91 callsubr
          143 43 hstem
          522.9900054931641 -42 callgsubr
          vstem
          1011 -27 callgsubr
          230.99000549316406 -325 -88 callgsubr
        </CharString>
        <CharString name="Ycircumflex">
          -37 91 callsubr
          522.9900054931641 -42 callgsubr
          hintmask 11011100
          649.9900054931641 1833.979995727539 rmoveto
          -69 callsubr
          hintmask 11101100
          43 callgsubr
          -301 137 -57 rlineto
          hintmask 11011100
          111 callgsubr
          592 -311.99000549316406 -88 callgsubr
        </CharString>
        <CharString name="Ydieresis">
          -37 -91 callsubr
          145 174 callsubr
          253.99000549316406 297 -28 -42 callgsubr
          1.0099945068359375 297 hintmask 00000000
          hintmask 11110100
          390.97999572753906 -38 callgsubr
          355 -145 rmoveto
          -234 hlineto
          -331 -660.0099945068359 -36 -105 -42.99000549316406 105 -338 660.0099945068359 rlineto
          -238 hlineto
          hintmask 11101000
          501 -928.0099945068359 rlineto
          -593.9799957275391 226 593.9799957275391 vlineto
          hintmask 11110100
          493 928.0099945068359 rlineto
          endchar
        </CharString>
        <CharString name="Ygrave">
          -37 -91 callsubr
          143 43 hstem
          522.9900054931641 -42 callgsubr
          vstem
          686.9799957275391 123 callsubr
          92.02000427246094 71 callsubr
          200 callgsubr
          -87 223 -153 97 -34 rlinecurve
          555 -51 -88 callgsubr
        </CharString>
        <CharString name="Z">
          -7 0 9 callgsubr
          -81 81 hstemhm
          110 callsubr
          1127.009994506836 hintmask 11010000
          110 callsubr
          -36 callsubr
          -57 callgsubr
          hintmask 10110000
          85 callgsubr
          hintmask 11010000
          -66 callsubr
          endchar
        </CharString>
        <CharString name="Zacute">
          -7 0 9 callgsubr
          -81 81 143 43 hstemhm
          110 callsubr
          1127.009994506836 hintmask 11011000
          550.9900054931641 -59 callsubr
          -331 -296 -7 -6 rlinecurve
          -462 -1581 -57 callgsubr
          hintmask 10111000
          85 callgsubr
          hintmask 11011000
          -66 callsubr
          endchar
        </CharString>
        <CharString name="Zcaron">
          -7 0 9 callgsubr
          -81 81 98 callsubr
          110 callsubr
          1127.009994506836 hintmask 11010100
          335.99000549316406 14 callsubr
          197.02000427246094 hlineto
          hintmask 11001100
          -9 callsubr
          rlineto
          hintmask 11010100
          28 callsubr
          rlineto
          -247 -1846 -57 callgsubr
          hintmask 10110100
          85 callgsubr
          hintmask 11010100
          -66 callsubr
          endchar
        </CharString>
        <CharString name="Zdotaccent">
          -7 0 9 callgsubr
          -81 81 147 -64 callgsubr
          530.9799957275391 299 hintmask 11001100
          530.9799957275391 -58 callsubr
          75 83 77 62 92 vhcurveto
          hintmask 11010100
          75 -44 58 -56 callsubr
          vhcurveto
          hintmask 11001100
          219 callsubr
          hvcurveto
          -442 -1718 -57 callgsubr
          hintmask 10101100
          85 callgsubr
          hintmask 11001100
          -66 callsubr
          endchar
        </CharString>
        <CharString name="a">
          -79 callgsubr
          26 callsubr
          564 1157 rmoveto
          -107 callgsubr
        </CharString>
        <CharString name="aacute">
          -79 callgsubr
          491.010009765625 43 26 callsubr
          930 1647.979995727539 20 callsubr
          -366 -490.99000549316406 rmoveto
          -107 callgsubr
        </CharString>
        <CharString name="abreve">
          -79 callgsubr
          151.010009765625 -31 callsubr
          142 callsubr
          -87.989990234375 154 373 -95 callsubr
          -211.00001525878906 215 callsubr
          hintmask 11110110
          565.9900054931641 1308 rmoveto
          hintmask 11110101
          217 63 callsubr
          187 190 -17 hvcurveto
          -150 hlineto
          -27 -1 -1 -178 -190 222 callgsubr
          hintmask 11110110
          84 callgsubr
          -77 callsubr
          -151 rmoveto
          -73 callsubr
          hvcurveto
          53.99000549316406 -144.02000427246094 rlineto
          37 52 156.02000427246094 46 99.99000549316406 hhcurveto
          165 78.00999450683594 -25 -163 hvcurveto
          -115 vlineto
          -129 -172.99000549316406 -55 callsubr
          -53 -132.02000427246094 hvcurveto
          hintmask 11111010
          -135.99000549316406 -56 -86.02000427246094 -105 -148 vvcurveto
          -200 147 -120.97000122070312 202 135 124 55.99000549316406 55.99000549316406 60.99000549316406 vhcurveto
          -8 vlineto
          -98.97999572753906 41 -5 76 vhcurveto
          -51 callgsubr
          129 callgsubr
          hlineto
          hintmask 11110110
          299.00999450683594 -164 64 -242 vhcurveto
          hintmask 11111010
          -56 -1009.0099945068359 rmoveto
          -133 -64 60 116 88 53 46 74 35 hvcurveto
          39 82 147 16 83 hhcurveto
          -319 vlineto
          -27 -23 -117 -54 -102.00999450683594 hhcurveto
          endchar
        </CharString>
        <CharString name="acircumflex">
          -79 callgsubr
          26 callsubr
          566.9900054931641 1515.990005493164 184 callsubr
          -275.97999572753906 146 callgsubr
          -11 callsubr
          41 callgsubr
          rlineto
          -26 callgsubr
          -359 rmoveto
          -107 callgsubr
        </CharString>
        <CharString name="acute">
          -707 1647.990005493164 43 hstem
          -10 callgsubr
          493.99000549316406 vstem
          -10 callgsubr
          1384 rmoveto
          -87 callgsubr
          226 callgsubr
          -98 -138 166 callsubr
          9 callsubr
          endchar
        </CharString>
        <CharString name="acute.cap">
          -704 1664.990005493164 43 hstem
          57.99000549316406 488.97999572753906 vstem
          58 1664.979995727539 rmoveto
          93 -92 115 41 42 callgsubr
          138 93 95 rlinecurve
          -145.97999572753906 133 124 callgsubr
          -13 -331 -296 68 callgsubr
          -6 rlinecurve
          endchar
        </CharString>
        <CharString name="adieresis">
          -79 callgsubr
          206 278.99000549316406 142 callsubr
          -115.989990234375 99 callsubr
          172.99998474121094 99 callsubr
          -187.97999572753906 -95 callsubr
          hintmask 00000000
          hintmask 11110110
          160 callgsubr
          245 callgsubr
          rmoveto
          204 callsubr
          170 callsubr
          61 88 -30 callgsubr
          -38.99000549316406 58 -91.02000427246094 -76 -70 callgsubr
          4 callgsubr
          -30 callgsubr
          hvcurveto
          458.00999450683594 70 callsubr
          72 hvcurveto
          hintmask 11111001
          -220 -205.99000549316406 rmoveto
          -107 callgsubr
        </CharString>
        <CharString name="ae">
          479 -99 callsubr
          163.97999572753906 374.00001525878906 146 -120.010009765625 140 303 166 -156.989990234375 155.99000549316406 hstemhm
          93.97999572753906 220.99000549316406 436.00999450683594 225 501.010009765625 70 callgsubr
          hintmask 11001111
          1682.979995727539 726 79 callgsubr
          hintmask 10110111
          -80 callgsubr
          hintmask 11001111
          -5 callgsubr
          hintmask 10101111
          94 callsubr
          hintmask 11001111
          211 callsubr
        </CharString>
        <CharString name="aeacute">
          479 -99 callsubr
          163.97999572753906 374.00001525878906 146 -120.010009765625 140 303 166 -156.989990234375 155.99000549316406 184 callgsubr
          43 hstemhm
          93.97999572753906 220.99000549316406 436.00999450683594 225 501.010009765625 70 callgsubr
          hintmask 1100111110000000
          1268 17 callgsubr
          414.99000549316406 -921.9900054931641 79 callgsubr
          hintmask 1011011110000000
          -80 callgsubr
          hintmask 1100111110000000
          -5 callgsubr
          hintmask 1010111110000000
          94 callsubr
          hintmask 1100111110000000
          211 callsubr
        </CharString>
        <CharString name="agrave">
          -79 callgsubr
          491.010009765625 43 26 callsubr
          564.9799957275391 10 callgsubr
          132 callsubr
          128 -131 29 callsubr
          -37 callgsubr
          -136.99000549316406 rmoveto
          -107 callgsubr
        </CharString>
        <CharString name="amacron">
          -79 callgsubr
          268.010009765625 163 142 callsubr
          -16.989990234375 547 -91 -95 callsubr
          hintmask 00000000
          hintmask 11110100
          840.9900054931641 83 callsubr
          hintmask 11111010
          -277 -431 rmoveto
          -107 callgsubr
        </CharString>
        <CharString name="ampersand">
          231 -99 callsubr
          127.97000122070312 -127.97000122070312 34 callsubr
          1246.990005493164 155.99000549316406 hstemhm
          -11 callgsubr
          207 -64.989990234375 204 397 186.97999572753906 -45 callsubr
          42 callgsubr
          hintmask 00000000
          hintmask 10101110
          1212.990005493164 180 rmoveto
          -51 callgsubr
          80 47.99000549316406 114 148 vvcurveto
          42 callsubr
          -18.990005493164062 76 -10.020004272460938 35 vhcurveto
          -192 hlineto
          62 callgsubr
          -28 25 -83.99000549316406 -93 vvcurveto
          -104.02000427246094 -31 -70.97999572753906 -51 -53 vhcurveto
          -102.02000427246094 180 callsubr
          203 callsubr
          215 -76 106 rrcurveto
          91 callgsubr
          99 126 90 callsubr
          248 vvcurveto
          177.99000549316406 -140 166 -233.99000549316406 -252 -162 -136 -222 -159.99000549316406 86 -130 83 -111 vhcurveto
          hintmask 01110110
          -173 64 callgsubr
          -138.02000427246094 -126 -187 vvcurveto
          -273 249 -136.99000549316406 356 107.00999450683594 118 33.970001220703125 45.02000427246094 86 vhcurveto
          -54 89 callsubr
          71 -24.979995727539062 100 hhcurveto
          51 144 callsubr
          7 -43 callsubr
          27 hvcurveto
          hintmask 10101110
          112.97999572753906 vlineto
          -35 callsubr
          9.020004272460938 -64 76 callgsubr
          -68 44 rrcurveto
          -514 1210 rmoveto
          128 63.02000427246094 -109.02000427246094 -82 -179 -92.02000427246094 179 callsubr
          -152.99000549316406 241 callgsubr
          hvcurveto
          -104 145 -48 44 145.99000549316406 vvcurveto
          143 -29 callgsubr
          54 110 vhcurveto
          hintmask 01110110
          40 -1247 rmoveto
          -285.97999572753906 -99 128 129 108 82 87 121 63 hvcurveto
          94 -132 34 callsubr
          -211.99000549316406 116 -131 rrcurveto
          -23 68 callsubr
          -55 -17 -77 hhcurveto
          endchar
        </CharString>
        <CharString name="aogonek">
          -170 155 callgsubr
          163.97999572753906 -148.989990234375 43 505.97999572753906 140 303 166 142 callsubr
          248 216 -24.989990234375 -95 callsubr
          hintmask 00000000
          hintmask 11011110
          902.9799957275391 -363.99000549316406 rmoveto
          -70 -55.99000549316406 18.990005493164062 -45 callsubr
          -2 hvcurveto
          -77 callsubr
          93.99000549316406 81 -21 callgsubr
          100.99000549316406 65 rrcurveto
          15.009994506835938 hlineto
          hintmask 11011101
          129 callgsubr
          vlineto
          299.00999450683594 -164 64 -242 -73 callsubr
          vhcurveto
          53.99000549316406 -144.02000427246094 rlineto
          37 52 156.02000427246094 46 99.99000549316406 hhcurveto
          165 78.00999450683594 -25 -163 hvcurveto
          -115 vlineto
          -129 -172.99000549316406 -55 callsubr
          -53 -132.02000427246094 hvcurveto
          -135.99000549316406 -56 -86.02000427246094 -105 -148 vvcurveto
          -200 147 -120.97000122070312 202 135 124 55.99000549316406 55.99000549316406 60.99000549316406 vhcurveto
          -8 vlineto
          hintmask 10111101
          109 callgsubr
          10.020004272460938 -7 callsubr
          19.990005493164062 -13.979995727539062 vhcurveto
          hintmask 11011110
          -118.00999450683594 -62 171 callgsubr
          -121 -76 callsubr
          -118 rrcurveto
          -137 1 105 -73 190 callsubr
          57 hvcurveto
          118 vlineto
          -17.020004272460938 -22 callsubr
          -50 165 callsubr
          -45.02000427246094 hhcurveto
          hintmask 11011101
          -395 511.97999572753906 rmoveto
          -133 -64 60 116 88 53 46 74 35 hvcurveto
          39 82 147 16 83 hhcurveto
          -319 vlineto
          -27 -23 -117 -54 -102.00999450683594 hhcurveto
          endchar
        </CharString>
        <CharString name="approxequal">
          137 254.99000549316406 42 callgsubr
          -18.990005493164062 186.97999572753906 103.02000427246094 42 callgsubr
          -18.990005493164062 187 hstemhm
          214.99000549316406 1005.9900054931641 hintmask 01011000
          215 857.9900054931641 rmoveto
          115 -89 rlineto
          64 47 52 50.02000427246094 94 hhcurveto
          hintmask 01101000
          63 callsubr
          44 -169 193 hhcurveto
          170 108.00999450683594 99 104 39 hvcurveto
          -103 99 rlineto
          -65 -48 -60 -49 -94 -139 -52 168.02000427246094 -193 hhcurveto
          hintmask 01011000
          203 callsubr
          -119.00999450683594 -128 -35 callsubr
          35 callgsubr
          hvcurveto
          169 callgsubr
          -459 rmoveto
          115.02000427246094 -89 228 callsubr
          hintmask 10011000
          54 callsubr
          -49 -94 -139 -52 168 -193 hhcurveto
          hintmask 01011000
          -165 171 callgsubr
          -128 -83.99000549316406 -32 hvcurveto
          endchar
        </CharString>
        <CharString name="aring">
          -79 callgsubr
          171 220 callsubr
          142 callsubr
          -64.989990234375 118 callsubr
          -136.99000549316406 -95 callsubr
          hintmask 1111101010000000
          563 1327.979995727539 rmoveto
          hintmask 1111101100000000
          -31 callsubr
          150 87 191 2 hvcurveto
          171 1 -127 109 callsubr
          -195 hhcurveto
          -156 -160.99000549316406 -75.02000427246094 -191 -3 hvcurveto
          hintmask 1111101010000000
          -169 -26 callgsubr
          128 -110 192 hhcurveto
          hintmask 1111101100000000
          1 421.00999450683594 rmoveto
          42 callsubr
          -1 74.02000427246094 -49.99000549316406 -93 vvcurveto
          -107.00999450683594 -70 -45 -99 1 vhcurveto
          -100 -22 callgsubr
          -62 110 callgsubr
          110 callsubr
          vvcurveto
          109.02000427246094 82 34 204 callsubr
          -1 vhcurveto
          hintmask 1111110010000000
          -592 vmoveto
          -107 callgsubr
        </CharString>
        <CharString name="asciicircum">
          62 489.97999572753906 1040.990005493164 hstem
          239 callsubr
          992.9900054931641 vstem
          395.97999572753906 489.97999572753906 rmoveto
          -210.99000549316406 hlineto
          394 1041 rlineto
          205 hlineto
          394 -1041 rlineto
          -211 hlineto
          -285 798 -286 -798 rlineto
          endchar
        </CharString>
        <CharString name="asciitilde">
          137 613.9900054931641 188 -19 187 hstemhm
          213 callsubr
          1005.0200042724609 hintmask 01100000
          213 callsubr
          757.9900054931641 rmoveto
          115.02000427246094 35 callsubr
          228 callsubr
          hintmask 10100000
          54 callsubr
          109 callgsubr
          -94 -139 -52 168 -193 hhcurveto
          hintmask 01100000
          -165 171 callgsubr
          -128 -84 -32 hvcurveto
          endchar
        </CharString>
        <CharString name="asterisk">
          -93 1114.0299987792969 32 callsubr
          510.47999572753906 176 -166.5 175.49000549316406 hintmask 00000000
          hintmask 10100000
          525.9900054931641 909.9900054931641 rmoveto
          -12 -263 192 1 -21 262 -2 62 callgsubr
          -35 202 callgsubr
          -2 7 rlinecurve
          131 -112.99000549316406 217 -144.02000427246094 97 170 -236 115 -165 49 164 55 232 121 -95 163 rlineto
          hintmask 11000000
          -220 -146 -7 -5 -114 -109.02000427246094 -4.0099945068359375 -4 rlinecurve
          34.02000427246094 168 12.990005493164062 262 rlineto
          -192 hlineto
          19 -264.99000549316406 rlineto
          2 -8.009994506835938 36.99000549316406 67 callsubr
          124 callgsubr
          vvcurveto
          -128.99000549316406 113 -220.02000427246094 145 -93 -165 234 -117.99000549316406 8 -2 152 -22 callsubr
          6 -3 rlinecurve
          -165 -53 -230.99000549316406 -123.99000549316406 -29 callgsubr
          -164 rlineto
          hintmask 10100000
          218 146 -11 callsubr
          121 -35 -170 rlineto
          endchar
        </CharString>
        <CharString name="at">
          917 -478 148 325.00999450683594 34 callsubr
          -158.99000549316406 63 callgsubr
          741.9799957275391 149 334 146 hstemhm
          91 callgsubr
          176 247.989990234375 188 467 161.72999572753906 377.28001403808594 63 callgsubr
          hintmask 1101111110000000
          1287.990005493164 181.99000549316406 rmoveto
          -121 167 callgsubr
          45 -65.97999572753906 -29 callgsubr
          hhcurveto
          285 285 307.97999572753906 529.0200042724609 456.99000549316406 -309.97999572753906 253.99000549316406 -446.02000427246094 -587 -452 -443 -675.9900054931641 -611 378 -291 482 193 191 50 52.99000549316406 85 hvcurveto
          -39 129 rlineto
          -35 -70 -141 109 callgsubr
          -198.99000549316406 hhcurveto
          -364.00999450683594 -339.99000549316406 201.99000549316406 572.9900054931641 563 372 389 451.99000549316406 343 275 -116 -484.99000549316406 -357.00999450683594 -193 -285 -148 -46 1 102.02000427246094 180.97999572753906 28 hvcurveto
          29 190.02000427246094 58 265.99000549316406 144 callsubr
          146 -172.02000427246094 165 callgsubr
          rcurveline
          144 callsubr
          -55.99000549316406 -44 callsubr
          16 -86 hhcurveto
          -384 -167 -351 -276.99000549316406 -7 hvcurveto
          -300.02000427246094 -6 153 -139.97999572753906 135 hhcurveto
          50 callgsubr
          128 144.97999572753906 173.02000427246094 91 hvcurveto
          68 callgsubr
          -57 0 -42 -76 callsubr
          -32 rrcurveto
          hintmask 1011111110000000
          -322.99000549316406 -10 rmoveto
          -107.00999450683594 -37.99000549316406 128 175 5 hvcurveto
          205 6 123 233.99000549316406 221 hhcurveto
          59.99000549316406 -21 callgsubr
          -12 callsubr
          -55 33 hvcurveto
          -228.99000549316406 -31 -217.99000549316406 -438 -138 hhcurveto
          endchar
        </CharString>
        <CharString name="atilde">
          -79 callgsubr
          187.02000427246094 -39 callsubr
          93.97999572753906 217 439.010009765625 -95 callsubr
          hintmask 00000000
          hintmask 11101011
          414.99000549316406 174 callgsubr
          hintmask 11110011
          104 21.020004272460938 132 callgsubr
          170.99000549316406 hhcurveto
          122 97.02000427246094 -34 callgsubr
          hintmask 11101011
          26 callgsubr
          -45.02000427246094 hvcurveto
          201 callgsubr
          86 callgsubr
          62 54 80 hhcurveto
          hintmask 11100111
          149 -325 rmoveto
          -107 callgsubr
        </CharString>
        <CharString name="b">
          -63 -18 -17 callgsubr
          839 158 callgsubr
          -52 callsubr
          -95 callsubr
          531.0099945068359 -3 callsubr
          vstem
          3 callgsubr
          -1596.990005493164 vlineto
          -28.020004272460938 43 198 -53.97999572753906 34 callsubr
          19 callsubr
          226 -574.0099945068359 -53 callgsubr
        </CharString>
        <CharString name="backslash">
          186 callsubr
          200 callsubr
          1599 rmoveto
          -198 hlineto
          570 -1962 rlineto
          198 hlineto
          -570 1962 rlineto
          endchar
        </CharString>
        <CharString name="bar">
          -446 -188 1968 149 callsubr
          -1968 203.02000427246094 1968 -203.02000427246094 vlineto
          endchar
        </CharString>
        <CharString name="braceleft">
          133 callsubr
          326.97999572753906 208.99000549316406 vstem
          535.9799957275391 975.9900054931641 rmoveto
          620 266.02000427246094 122 vlineto
          11 -86.02000427246094 -81.99000549316406 13 -109.02000427246094 hhcurveto
          67 callsubr
          214 callsubr
          -59 -197 hvcurveto
          -511 vlineto
          -60 -151 -57 75 callgsubr
          -10 vhcurveto
          -142 vlineto
          100.99000549316406 -10 151 168 callsubr
          -58 vvcurveto
          -511 vlineto
          -196.97999572753906 44.02000427246094 -59 50 callgsubr
          109.02000427246094 81.99000549316406 11 24 -45 callsubr
          vhcurveto
          111.99000549316406 -266.02000427246094 620.9900054931641 vlineto
          32 61 callsubr
          29 -25.009994506835938 26.990005493164062 vhcurveto
          -44.99000549316406 47 -79 40 -77 30 76 30 77 31.990005493164062 43.99000549316406 43 rrcurveto
          28 0 callgsubr
          16 30 38 vvcurveto
          endchar
        </CharString>
        <CharString name="braceright">
          133 callsubr
          435.99000549316406 208.99000549316406 vstem
          645 974.9900054931641 rmoveto
          511 vlineto
          197 -44 59 67 callsubr
          -109.02000427246094 -81.97999572753906 -13 -11 -86.02000427246094 vhcurveto
          -122 266.02000427246094 -620 vlineto
          -38 16 -30 28 -25.990005493164062 vhcurveto
          44 -43 77 35 callgsubr
          76 -30 -77 -30 -70 callgsubr
          -40 -45 -47 rrcurveto
          -25 239 callgsubr
          -15 -29 -32 vvcurveto
          -620.9900054931641 -266.02000427246094 132 callsubr
          vlineto
          -24 -45 callsubr
          182 callgsubr
          -11 109.02000427246094 hhcurveto
          50 callgsubr
          44 59 196.97999572753906 hvcurveto
          511 vlineto
          58 151 213 callgsubr
          100.99000549316406 10 vhcurveto
          142 vlineto
          75 callgsubr
          10 -151 57 60 vvcurveto
          endchar
        </CharString>
        <CharString name="bracketleft">
          161 callsubr
          239 callsubr
          211.99000549316406 vstem
          185 1485.990005493164 rmoveto
          -1426 vlineto
          -196.97999572753906 36 -54 50 callgsubr
          123 69 10 48 callsubr
          98 vhcurveto
          116 vlineto
          -268 -22 callgsubr
          rlineto
          1642 268 119.99000549316406 vlineto
          11 -98 -69 13 -123 hhcurveto
          67 callsubr
          -36 -54 -197 hvcurveto
          endchar
        </CharString>
        <CharString name="bracketright">
          161 callsubr
          439.99000549316406 211.99000549316406 vstem
          651.9799957275391 1485.990005493164 rmoveto
          197 -35.99000549316406 54 -154 -123 -69 -13 -11 -98 vhcurveto
          112 callgsubr
          268 -1642 vlineto
          -268 -77 callsubr
          rlineto
          -116 vlineto
          49 callgsubr
          98 69 -10 123 hhcurveto
          154 35.99000549316406 54 196.97999572753906 hvcurveto
          1426 vlineto
          endchar
        </CharString>
        <CharString name="breve">
          -517 1307.990005493164 -31 callsubr
          hstem
          50 callsubr
          154 382 215 callsubr
          vstem
          50 callsubr
          176 callsubr
          84 callgsubr
          -2 callsubr
          -37 callgsubr
          hvcurveto
          -154 hlineto
          endchar
        </CharString>
        <CharString name="breve.cap">
          -520 1631.979995727539 158 callgsubr
          47.6300048828125 686.7100067138672 vstem
          50 callsubr
          143 callgsubr
          -16 127 -157 231 hhcurveto
          220 139.02000427246094 72 callsubr
          -153 hlineto
          endchar
        </CharString>
        <CharString name="brokenbar">
          -446 -185.99000549316406 1965.990005493164 149 callsubr
          -830.0099945068359 203.02000427246094 830.0099945068359 -203.02000427246094 vlineto
          -1139.020004272461 vmoveto
          -826.9799957275391 203.02000427246094 826.9799957275391 -203.02000427246094 vlineto
          endchar
        </CharString>
        <CharString name="bullet">
          -446 498.99000549316406 452.99000549316406 hstem
          -6 callgsubr
          440.99000549316406 vstem
          -6 callgsubr
          723.9900054931641 rmoveto
          -121 -7 97 -104 121.02000427246094 hhcurveto
          119.99000549316406 104 102.99000549316406 126 6 hvcurveto
          126.02000427246094 7 -97 98 100 callgsubr
          hhcurveto
          -120 -104 -101.00999450683594 -127 -7 hvcurveto
          endchar
        </CharString>
        <CharString name="c">
          2 callgsubr
          120 callsubr
          vstem
          647.9900054931641 1155.990005493164 -100 callgsubr
        </CharString>
        <CharString name="cacute">
          2 callgsubr
          492.010009765625 43 120 callsubr
          vstem
          482 1384 rmoveto
          -87 callgsubr
          226 callgsubr
          237 callgsubr
          -138 -126 9 callsubr
          -52 callsubr
          -228 -100 callgsubr
        </CharString>
        <CharString name="caron">
          -477 147 callsubr
          -55 callgsubr
          1681.979995727539 rmoveto
          183 callgsubr
          60 callsubr
          268 332 -135 56 -232 -222 -249 131 callsubr
          rlineto
          endchar
        </CharString>
        <CharString name="caron.cap">
          -542 1669.979995727539 43 -43 146 hstemhm
          47.97999572753906 685.0200042724609 hintmask 10100000
          47.97999572753906 13 callsubr
          hintmask 01100000
          242 263 100 callgsubr
          136 callgsubr
          hintmask 10100000
          28 callsubr
          rlineto
          endchar
        </CharString>
        <CharString name="caronvertical">
          -962 1033.990005493164 653 hstem
          104.97999572753906 197.00999450683594 vstem
          64.97999572753906 108 callsubr
          110 callgsubr
          198 callgsubr
          -18 -48 callsubr
          214 callsubr
          144 callsubr
          vhcurveto
          -175.97999572753906 -55 49 callgsubr
          -47 rlineto
          25 -31 29.990005493164062 -92 -79 vvcurveto
          -163 -27 -48 -55 callsubr
          -76 vhcurveto
          -43 callsubr
          -28 rlineto
          endchar
        </CharString>
        <CharString name="ccaron">
          2 callgsubr
          497 211 callgsubr
          91 callgsubr
          hintmask 11011000
          366 1710 rmoveto
          166 callsubr
          60 callsubr
          hintmask 11101000
          145 callgsubr
          hintmask 11011000
          15 callsubr
          rlineto
          281.99000549316406 -554 -100 callgsubr
        </CharString>
        <CharString name="ccedilla">
          -299 39 callgsubr
          294 164 -158.99000549316406 43 951.9700012207031 170 hstemhm
          -48 callsubr
          91 callgsubr
          202.01998901367188 162.97999572753906 hintmask 11011100
          948 92 rmoveto
          -45.02000427246094 49 callsubr
          rlineto
          -30.990005493164062 -51 -107 -36 -114 hhcurveto
          -185 -146 157 290 10 hvcurveto
          278 10.020004272460938 -37 callsubr
          111 157 hhcurveto
          116 80 -55 callsubr
          -42 60 hvcurveto
          35 174 rlineto
          24 -36 75 callgsubr
          35 -143 hhcurveto
          -367 -184 -262 -336 hvcurveto
          hintmask 10111100
          -294.00999450683594 146 -229.99000549316406 263.97999572753906 -42.99000549316406 vhcurveto
          10.020004272460938 -35 4 -46.02000427246094 -70 callsubr
          -68 rrcurveto
          -107.99000549316406 -7 -55 -42 -65 hhcurveto
          -30.990005493164062 -34 -76 callsubr
          11.020004272460938 -17.020004272460938 hvcurveto
          -15 -31 callgsubr
          13.990005493164062 hvcurveto
          hintmask 11011100
          6 -21 callgsubr
          -9 77 -25 53.99000549316406 125.00999450683594 8 114 40 62 58 rrcurveto
          endchar
        </CharString>
        <CharString name="ccircumflex">
          2 callgsubr
          120 callsubr
          vstem
          238 1349 rmoveto
          126 37 callsubr
          -275.99000549316406 146 callgsubr
          rlineto
          409.99000549316406 -193 -100 callgsubr
        </CharString>
        <CharString name="cdotaccent">
          2 callgsubr
          235 callsubr
          120 callsubr
          149.99998474121094 303 vstem
          459.97999572753906 174 callgsubr
          -83 66 -52 75 189 callgsubr
          -30 callsubr
          -83 -69 -87 vhcurveto
          188 -326 -100 callgsubr
        </CharString>
        <CharString name="cedilla">
          -816 39 callgsubr
          hstem
          276 157.97999572753906 vstem
          61.99000549316406 -293.99000549316406 rmoveto
          202 callsubr
          -31 callgsubr
          48 callsubr
          hvcurveto
          8 111 -18 99 -47 50 callsubr
          -43 130 callgsubr
          rcurveline
          -83 -4.0200042724609375 19 -38.970001220703125 48 callsubr
          -52.02000427246094 -13 -97 rlinecurve
          113 callgsubr
          endchar
        </CharString>
        <CharString name="cent">
          -118 -216 365.99000549316406 -161.99000549316406 -17 callgsubr
          835.989990234375 145 callsubr
          -167.99000549316406 391 hstemhm
          166 callgsubr
          91 callgsubr
          212.99998474121094 149.5 -112.50999450683594 149.52000427246094 hintmask 01101010
          1007.9799957275391 92 rmoveto
          -44.99000549316406 49 callsubr
          rlineto
          -30.990005493164062 -51 -107 -36 -113.99000549316406 hhcurveto
          -185 -146 157 290 10 hvcurveto
          278 10 160 111 157 hhcurveto
          116 80 -55 callsubr
          -42 60 hvcurveto
          35 174 165 callgsubr
          62 callsubr
          -78 28.020004272460938 132 callsubr
          -43 callsubr
          rlinecurve
          hintmask 01011010
          5 223 rlineto
          -149 hlineto
          hintmask 01101010
          -6 -227 rlineto
          -306 -40 67 callsubr
          -245 -307 vvcurveto
          hintmask 01101100
          -300.00999450683594 202 callgsubr
          -234.99000549316406 275 -33.99000549316406 vhcurveto
          hintmask 10101100
          -4 -205 rlineto
          150 hlineto
          hintmask 01101100
          -76 callsubr
          204 rlineto
          hintmask 01101010
          115.02000427246094 12 77 callgsubr
          38.99000549316406 57 53 rrcurveto
          endchar
        </CharString>
        <CharString name="circumflex">
          -465 147 callsubr
          111 callsubr
          1349 rmoveto
          90 callsubr
          -56.02000427246094 249 223 -1 callsubr
          rlineto
          endchar
        </CharString>
        <CharString name="circumflex.cap">
          -486 1688.990005493164 -86 callgsubr
          47.97999572753906 718 hintmask 00000000
          hintmask 10110000
          47.97999572753906 1688.990005493164 rmoveto
          137.02000427246094 -57 111 callgsubr
          hintmask 01110000
          -69 callsubr
          hintmask 10110000
          -259.02000427246094 -301 rlineto
          endchar
        </CharString>
        <CharString name="colon">
          128 callsubr
          752.9700012207031 326 hstemhm
          -11 callgsubr
          129 callsubr
          hintmask 01110000
          -11 callgsubr
          925.9799957275391 -25 callgsubr
          -79 -95 -22 callgsubr
          hvcurveto
          -796 vmoveto
          -88 3.0200042724609375 136 callsubr
          76 hhcurveto
          86 90 callgsubr
          138 callgsubr
          -3 hvcurveto
          hintmask 10110000
          224 callsubr
          -62 callsubr
          70 -56 callsubr
          hhcurveto
          hintmask 01110000
          128 callgsubr
          endchar
        </CharString>
        <CharString name="colonmonetary">
          28 61 callsubr
          43 -41.00999450683594 43 -43 239 callsubr
          1177 188.99000549316406 -51.96002197265625 32 callsubr
          42 callsubr
          231.99000549316406 183.00999450683594 115.49000549316406 5.4999847412109375 117.49000549316406 13.5 117 6.5200042724609375 117 hintmask 0000000000000000
          hintmask 0100110100000000
          620.9900054931641 1513.979995727539 rmoveto
          -296 -76.99000549316406 -230 -264 -420 vvcurveto
          -350 160 -261 268 -106 vhcurveto
          hintmask 1000111010000000
          -7 callsubr
          -389.97999572753906 rlineto
          117 hlineto
          23 354.97999572753906 44 -7.9799957275390625 45.02000427246094 -6 47 -77 callsubr
          rlinecurve
          -22.020004272460938 -339 rlineto
          117 hlineto
          hintmask 0100111010000000
          22.020004272460938 341 rlineto
          hintmask 0100111001000000
          140.99000549316406 11 -51 callgsubr
          36 74 30 rrcurveto
          hintmask 0010111001000000
          -1 197 -22 callsubr
          -39.02000427246094 100 callgsubr
          -37.99000549316406 -127 -12 rlinecurve
          77 1166 116 -18 55 -34.02000427246094 62 callsubr
          -11 rlinecurve
          33 206 -37.99000549316406 8.990005493164062 -64 23 -110 14 rlinecurve
          19 288.00999450683594 rlineto
          -117 hlineto
          hintmask 0101010101000000
          -19 -278.02000427246094 rlineto
          1 -22 -23 0 -24 hhcurveto
          -23 -22 -1 -77 callsubr
          -23.020004272460938 hvcurveto
          19.009994506835938 280 rlineto
          -117 hlineto
          hintmask 0100110100000000
          -12 callsubr
          -301.02000427246094 rlineto
          164 -1345 rmoveto
          -48 3 -45 10 -42 15.009994506835938 rrcurveto
          hintmask 0101010100000000
          76 1143.990005493164 rlineto
          5 57 callsubr
          33.02000427246094 3 34 hhcurveto
          13.990005493164062 13 0 -1 13 hvcurveto
          hintmask 0100110100000000
          -70 callgsubr
          -1179.009994506836 rlineto
          -248 -51 callgsubr
          rmoveto
          -135 77 callgsubr
          -75 183 225 vvcurveto
          262 103.02000427246094 190.02000427246094 63 callgsubr
          -46 callgsubr
          vhcurveto
          -70 -1044.990005493164 rlineto
          endchar
        </CharString>
        <CharString name="comma">
          -699 -499.99000549316406 43 hstem
          281.97999572753906 217 callsubr
          vstem
          151 -381.99000549316406 -6 callsubr
        </CharString>
        <CharString name="copyright">
          828 182 callgsubr
          129 268 166 callgsubr
          657.0099945068359 166 callgsubr
          264.02000427246094 -11 callsubr
          hstem
          -79 callsubr
          142 285 -79 callsubr
          977.0199890136719 -43 callgsubr
          53 1239 rmoveto
          -323.00999450683594 -173 -214 -280 -248 163 -229 277 133 121 40 54 65 hvcurveto
          -45 124.00999450683594 rlineto
          -28 -49.99000549316406 -92.02000427246094 -33 -104.97999572753906 hhcurveto
          -160.02000427246094 -113 118 217 180 99 141.99000549316406 184 100 70 239 callgsubr
          -36 54.99000549316406 hvcurveto
          32 164 rlineto
          19.990005493164062 -35 -75 36 -128 hhcurveto
          endchar
        </CharString>
        <CharString name="currency">
          226 330.99000549316406 163.97999572753906 555.0099945068359 165 -103.94000244140625 32 callsubr
          321.97999572753906 177 530.010009765625 177.99000549316406 hintmask 10111000
          1206.990005493164 773 rmoveto
          -29 callgsubr
          -30 88 -51 -35 callgsubr
          vhcurveto
          209 209 -127 127 -214 -212.99000549316406 rlineto
          hintmask 11011000
          40 168 callsubr
          -79 23 -84 hhcurveto
          -83.99000549316406 170 callgsubr
          -23 -41 -66 callgsubr
          hvcurveto
          -210 211.99000549316406 166 callsubr
          -128 205 -205 rlineto
          -52 -71.99000549316406 -30 -89 179 callsubr
          vvcurveto
          -97.02000427246094 31 35 callsubr
          52 -72 vhcurveto
          -206 -207 127 -127.02000427246094 211 212 rlineto
          -39 213 callgsubr
          200 callgsubr
          -23 83 hhcurveto
          85.00999450683594 76 callsubr
          23 41 66.99000549316406 hvcurveto
          209.02000427246094 -210 127 127 -205 70 callgsubr
          rlineto
          hintmask 10111000
          51 72 30 87 109 callsubr
          vvcurveto
          -442 -278.02000427246094 rmoveto
          -147 171 callgsubr
          90 callsubr
          152 hvcurveto
          hintmask 11011000
          152 118.99000549316406 49 callsubr
          147 147 117 -124.99000549316406 -152 vhcurveto
          hintmask 10111000
          -152 -117 183 callgsubr
          -147 vhcurveto
          endchar
        </CharString>
        <CharString name="d">
          -64 64 callsubr
          vstem
          850.9799957275391 1664 rmoveto
          -475.02000427246094 vlineto
          -101 callsubr
          1679.990005493164 -220 hlineto
          -530 -1106 -94 callsubr
        </CharString>
        <CharString name="dagger">
          -275 1126.5 159.49000549316406 hstemhm
          412.47999572753906 200.99000549316406 -194 187 hintmask 10100000
          413.97999572753906 1128 rmoveto
          11 -928.0099945068359 rlineto
          176 hlineto
          11 928.0099945068359 290 -3 rlineto
          163 vlineto
          hintmask 11000000
          -290 -4 3 374 rlineto
          -204 hlineto
          -76 callsubr
          -374 -289 4 -1 -163 rlineto
          hintmask 10100000
          290 3 rlineto
          endchar
        </CharString>
        <CharString name="daggerdbl">
          -275 477.49000549316406 160 489.00999450683594 -37 callsubr
          hstemhm
          412.99000549316406 197.97999572753906 -190.47999572753906 182.47999572753906 hintmask 11010000
          413 478.99000549316406 rmoveto
          15 -834.9900054931641 rlineto
          166.99000549316406 hlineto
          16 834.9900054931641 290.02000427246094 -26 callgsubr
          rlineto
          163 vlineto
          hintmask 11100000
          -290.02000427246094 -3 rlineto
          184 callgsubr
          vlineto
          291 -3 rlineto
          163 vlineto
          -291 -26 callgsubr
          130 callgsubr
          373 rlineto
          -205 hlineto
          3 -373 -288.00999450683594 -76 callsubr
          -1 -163 289.00999450683594 3 rlineto
          -492.00999450683594 vlineto
          -289.00999450683594 3 rlineto
          -163 vlineto
          hintmask 11010000
          289.00999450683594 -76 callsubr
          rlineto
          endchar
        </CharString>
        <CharString name="dcaron">
          347 64 callsubr
          277.02000427246094 196.99000549316406 vstem
          1483 1687 rmoveto
          -176 -55 49 callgsubr
          -47 rlineto
          25.009994506835938 -31 30 -92 -79 vvcurveto
          -163 -27.009994506835938 -48 -21 -76 vhcurveto
          62 callgsubr
          -28 171 callsubr
          -48 callsubr
          -22 callsubr
          144 callsubr
          vhcurveto
          -632.0200042724609 -498.00999450683594 rmoveto
          -101 callsubr
          1679.990005493164 -220 -475.02000427246094 hlineto
          -530 -630.9900054931641 -94 callsubr
        </CharString>
        <CharString name="dcroat">
          172 callsubr
          150 141 hstem
          161 callgsubr
          vstem
          1211.990005493164 1446.990005493164 rmoveto
          -141 217 -220 -217 -269.97999572753906 -141 269.97999572753906 -117 hlineto
          -101 callsubr
          1321.979995727539 141 141 hlineto
          -891 -889 -94 callsubr
        </CharString>
        <CharString name="degree">
          -389 938.9799957275391 143.99000549316406 389.0299987792969 144.99000549316406 hstem
          116 155.99000549316406 368.989990234375 155 vstem
          455.99000549316406 1617 rmoveto
          -190 -150 -142 -197 -195 151.99000549316406 -144 188 190 150.02000427246094 142 197 194.99000549316406 -151 147 callgsubr
          -189 hvcurveto
          -534.0200042724609 vmoveto
          -101.99000549316406 -82 83 112 180 callsubr
          82 81.02000427246094 77 callgsubr
          102.00999450683594 -46 callgsubr
          -82 -112 -113.00999450683594 -82.99000549316406 -82 -102.00999450683594 hvcurveto
          endchar
        </CharString>
        <CharString name="dieresis">
          -438 245 callgsubr
          180 callgsubr
          hstem
          59.99000549316406 99 callsubr
          172.99998474121094 99 callsubr
          vstem
          59.99000549316406 45 callsubr
          458 hmoveto
          221 callsubr
          80 170 callsubr
          61 88 -30 callgsubr
          -40 58 69 callsubr
          -77 -78 163 callsubr
          endchar
        </CharString>
        <CharString name="dieresis.cap">
          -408 1666.990005493164 164 callsubr
          hstem
          -10 callgsubr
          297 199 297 vstem
          -10 callgsubr
          80 callgsubr
          -93.99000549316406 159 callsubr
          154 callgsubr
          496 hmoveto
          -82 63 -51 74 3 callsubr
          -70 callgsubr
          -80 195 callsubr
          endchar
        </CharString>
        <CharString name="divide">
          92 89 callgsubr
          205 callgsubr
          164.00999450683594 170 171.010009765625 299.99000549316406 hstem
          550.9900054931641 305.99000549316406 vstem
          550.9900054931641 1167.990005493164 rmoveto
          -85.00999450683594 65 -53.99000549316406 76 85 80 65.99000549316406 94 78.00999450683594 -47 61.99000549316406 -56 callsubr
          -82 -82 -71 69 callsubr
          vhcurveto
          -322 -310 rmoveto
          -170 935 170 -935 vlineto
          321 -495 rmoveto
          -83.99000549316406 65 -54 76 84.99000549316406 80 65 42 callsubr
          77 -47 62 -56 callsubr
          -82 -82 -70.99000549316406 -44 callsubr
          vhcurveto
          endchar
        </CharString>
        <CharString name="dollar">
          71 -236.99000549316406 397.97999572753906 -174.989990234375 175 1201.979995727539 173.00999450683594 -173.00999450683594 399.00999450683594 hstemhm
          231.99000549316406 91 callgsubr
          147.989990234375 163 -122 163 153.00999450683594 219 hintmask 01101011
          1169 397.99000549316406 rmoveto
          238 -225.02000427246094 125.00999450683594 -195.99000549316406 100.99000549316406 vhcurveto
          -219 113.00999450683594 -35 callsubr
          53 149 vvcurveto
          131 146 54.99000549316406 144 164 78 -37.99000549316406 -42 70 vhcurveto
          45 176 -47 30 -98 39 -151 62 callgsubr
          rlinecurve
          hintmask 01011011
          -22 callgsubr
          226 rlineto
          -163 hlineto
          hintmask 01101011
          -77 callsubr
          -230 rlineto
          -210 -25.990005493164062 -191 -108.00999450683594 -251 vvcurveto
          -220 192 -146 188.99000549316406 -92 vhcurveto
          214 -104 123 -63 -150 vvcurveto
          -150.02000427246094 -112 -18 callgsubr
          -191 -139 -145 47 46 -75 vhcurveto
          -53 -183 rlineto
          hintmask 01101101
          48 -30.990005493164062 141 -22 callsubr
          169.99000549316406 -10.020004272460938 rrcurveto
          hintmask 10101101
          -77 callsubr
          240 callgsubr
          rlineto
          163 hlineto
          hintmask 01101101
          -22 callgsubr
          226 rlineto
          hintmask 01101011
          246 0 callgsubr
          166 131.99000549316406 251 vvcurveto
          endchar
        </CharString>
        <CharString name="dong">
          31 0 196.99000549316406 93.989990234375 184 590 183 105.010009765625 145 callsubr
          hstem
          166 callgsubr
          238.97999572753906 453.02000427246094 131 callsubr
          vstem
          511 1520.990005493164 rmoveto
          -168 338 vlineto
          4 -123 rlineto
          167 callgsubr
          -43 -66 callgsubr
          8.990005493164062 -30 callsubr
          hhcurveto
          -319 -187.99000549316406 -189 -322.99000549316406 -303 -79 callsubr
          -142 221 180 89.00999450683594 69.02000427246094 41 43.99000549316406 hvcurveto
          -70 vlineto
          -8 0 -32.02000427246094 23 vhcurveto
          164 1062.020004272461 220 168 -220 173 240 callgsubr
          -173 -338 hlineto
          338 -959 rmoveto
          -19 -24 -27.020004272460938 -68 -208 hhcurveto
          -83 -111 70 197 170 36 202 callgsubr
          228 162 15.009994506835938 -36.99000549316406 202 callsubr
          12 hvcurveto
          -450.99000549316406 vlineto
          -734 -365 rmoveto
          -197 1105 197 -1105 vlineto
          endchar
        </CharString>
        <CharString name="dotaccent">
          -898 203 callgsubr
          291 hstem
          -10 callgsubr
          303 vstem
          -10 callgsubr
          174 callgsubr
          -83 66 -52 75 82.99000549316406 79.00999450683594 64 92 21 callsubr
          vhcurveto
          endchar
        </CharString>
        <CharString name="dotaccent.cap">
          -898 1668.990005493164 -64 callgsubr
          51.99000549316406 205 callgsubr
          hintmask 01100000
          52 -58 callsubr
          75 -46 callgsubr
          77 62 92 vhcurveto
          hintmask 10100000
          157 callgsubr
          58 0 callsubr
          vhcurveto
          hintmask 01100000
          -70 callgsubr
          -81 -66 callgsubr
          -87 hvcurveto
          endchar
        </CharString>
        <CharString name="dotlessi">
          -695 0 -60 callgsubr
          hstem
          -4 callsubr
          vstem
          34 callgsubr
          1137.990005493164 -92 callgsubr
          endchar
        </CharString>
        <CharString name="e">
          -80 callsubr
          56 callgsubr
          1025.990005493164 726 -107 callsubr
        </CharString>
        <CharString name="eacute">
          -80 callsubr
          184 callgsubr
          43 56 callgsubr
          960.9799957275391 178 callsubr
          -98 -138 -126 -136 -114.02000427246094 -124.99000549316406 rlinecurve
          94 callgsubr
          65 -921.9900054931641 -107 callsubr
        </CharString>
        <CharString name="ebreve">
          -80 callsubr
          152.00999450683594 -31 callsubr
          230 callgsubr
          -63.99000549316406 50 callgsubr
          382.00999450683594 215 callsubr
          112 callgsubr
          70 callgsubr
          hintmask 00000000
          hintmask 11110110
          596.9900054931641 1308 rmoveto
          -2 callsubr
          -1 hvcurveto
          67 callsubr
          hlineto
          84 callgsubr
          hintmask 11111001
          429 -582 -107 callsubr
        </CharString>
        <CharString name="ecaron">
          -80 callsubr
          496.99998474121094 43 -41.989990234375 43 hstemhm
          23 callgsubr
          hintmask 11101110
          698.9799957275391 196 callgsubr
          hintmask 11110110
          145 callgsubr
          hintmask 11101110
          -134.97999572753906 56 -232.02000427246094 -222 -249 223 18 callgsubr
          327 -594.9900054931641 -107 callsubr
        </CharString>
        <CharString name="ecircumflex">
          -80 callsubr
          56 callgsubr
          598 1515.990005493164 rmoveto
          -1 callsubr
          90 callsubr
          41 callgsubr
          rlineto
          427.99000549316406 -790 -107 callsubr
        </CharString>
        <CharString name="edieresis">
          -80 callsubr
          206.99998474121094 278.99000549316406 230 callgsubr
          -91.99000549316406 99 callsubr
          173.00999450683594 99 callsubr
          168 callgsubr
          70 callgsubr
          hintmask 00000000
          hintmask 11110110
          356.99000549316406 245 callgsubr
          rmoveto
          80 74.02000427246094 61 88 -30 callgsubr
          -39.02000427246094 58 -91 -76 -70 callgsubr
          4 callgsubr
          -30 callgsubr
          hvcurveto
          458 hmoveto
          204 callsubr
          66 callsubr
          -40 58 -44 callsubr
          -76.99000549316406 -78 4 callgsubr
          -30 callgsubr
          hvcurveto
          hintmask 11101001
          211 -636.9900054931641 -107 callsubr
        </CharString>
        <CharString name="edotaccent">
          -80 callsubr
          191.00999450683594 291 226 callsubr
          126.99998474121094 303 72.010009765625 70 callgsubr
          vstem
          585.9900054931641 235 callgsubr
          79 25 callsubr
          440 -621 -107 callsubr
        </CharString>
        <CharString name="egrave">
          -80 callsubr
          184 callgsubr
          43 56 callgsubr
          595.9900054931641 10 callgsubr
          -112.00999450683594 128 -130.99000549316406 147.99000549316406 -95 133 callgsubr
          430 -567.9900054931641 -107 callsubr
        </CharString>
        <CharString name="eight">
          6 -99 callsubr
          50 callgsubr
          1273.990005493164 153 hstemhm
          151.97999572753906 211 -152 202.99000549316406 500.00999450683594 202 -156.989990234375 217.99000549316406 hintmask 11010100
          1176.990005493164 399.99000549316406 rmoveto
          -77 callsubr
          191 -163 111 -175 100 rrcurveto
          hintmask 11011000
          197 -29 callgsubr
          82 174 147 callgsubr
          vvcurveto
          209 -179.02000427246094 140 -262 -252.99000549316406 -211 244 callsubr
          -246 -188.99000549316406 113.00999450683594 -113 138 -88 vhcurveto
          hintmask 11100100
          -223.99000549316406 -109 -86.02000427246094 -160.99000549316406 -149.02000427246094 vvcurveto
          -291 270.00999450683594 -109.97000122070312 252.99000549316406 vhcurveto
          hintmask 11010100
          269 236.02000427246094 136.99000549316406 279 -3 hvcurveto
          -508.99000549316406 1012 rmoveto
          hintmask 11011000
          157 42 callsubr
          -44 callsubr
          -135 -6 hvcurveto
          -26 callgsubr
          112 callgsubr
          -68 -132 -151 -51 rrcurveto
          -151 87 -127.02000427246094 92 144 vvcurveto
          hintmask 11010100
          129 112 76 142 vhcurveto
          76 callgsubr
          -1274 rmoveto
          hintmask 11100100
          -219 -101 99 164.99000549316406 141 102.00999450683594 119.00999450683594 63 callsubr
          59 hvcurveto
          179 -95 172.02000427246094 -83 -170 vvcurveto
          hintmask 11010100
          -149 -137 -86 -139 vhcurveto
          endchar
        </CharString>
        <CharString name="ellipsis">
          746 -22 160 callgsubr
          hstem
          186.97999572753906 129 callsubr
          375.02000427246094 306.99000549316406 375.00999450683594 129 callsubr
          vstem
          186.97999572753906 215 callgsubr
          rmoveto
          -88 3 92 callsubr
          -50 70 -56 callsubr
          hhcurveto
          128 callgsubr
          683.0099945068359 hmoveto
          -88 2 92 callsubr
          -49 70 -96.00999450683594 hhcurveto
          -81.99000549316406 -81.02000427246094 -70 callgsubr
          -95 3.0200042724609375 hvcurveto
          682 hmoveto
          -88 -22 callgsubr
          238 callgsubr
          -63.97999572753906 76 hhcurveto
          86 89 callsubr
          138 callgsubr
          -77 callsubr
          hvcurveto
          81 -3 109 callgsubr
          70 -95 hhcurveto
          -83 -81 -70 callgsubr
          -95 3 hvcurveto
          endchar
        </CharString>
        <CharString name="emacron">
          -80 callsubr
          269.00999450683594 163 230 callgsubr
          7.0099945068359375 547 -52 70 callgsubr
          hintmask 00000000
          hintmask 11110100
          872 83 callsubr
          hintmask 11111010
          50 callgsubr
          -862 -107 callsubr
        </CharString>
        <CharString name="emdash">
          1042 682.9799957275391 177 hstem
          200 callsubr
          1863 228 callgsubr
          1863 177 -1863 vlineto
          endchar
        </CharString>
        <CharString name="endash">
          391 682.9799957275391 177 hstem
          200 callsubr
          1212 228 callgsubr
          1212.009994506836 177 -1212.009994506836 vlineto
          endchar
        </CharString>
        <CharString name="eng">
          -22 -507 159 callgsubr
          -140.97000122070312 43 181 callsubr
          105 callsubr
          493.02000427246094 219.99000549316406 hintmask 00000000
          hintmask 10101110
          -52 callgsubr
          1137.990005493164 28 callgsubr
          hintmask 10110110
          868.9900054931641 vlineto
          91.00999450683594 66 121 35 73 -76 callsubr
          rrcurveto
          174.02000427246094 62 callgsubr
          34 -35 callsubr
          -186 vvcurveto
          -755.9700012207031 vlineto
          -237.02000427246094 -7 callsubr
          -70 -117 -24 -63 130 callgsubr
          7 -55 callsubr
          vhcurveto
          hintmask 01110110
          -152 vlineto
          hintmask 10110110
          -8.009994506835938 18 98 -6 37.99000549316406 hhcurveto
          210 107.00999450683594 173 318.02000427246094 hvcurveto
          729.9799957275391 vlineto
          -1 333.99000549316406 -92 115.02000427246094 -246 -6 -149 -4.0200042724609375 -164 -76.99000549316406 -85 -58 rrcurveto
          hintmask 10101110
          -1 120 rlineto
          -195.02000427246094 hlineto
          endchar
        </CharString>
        <CharString name="eogonek">
          -178 155 callgsubr
          -52 callsubr
          371.99000549316406 146 332 155.99000549316406 226 callsubr
          200.99998474121094 216 85.010009765625 70 callgsubr
          vstem
          1025.990005493164 726 4 callsubr
          285 -184.02000427246094 148.99000549316406 -227 -4 rrcurveto
          -333.99000549316406 -6 -175 -246 -332 vvcurveto
          -370 181 -217.97999572753906 323.99000549316406 35 37 -76 callsubr
          5 36.99000549316406 vhcurveto
          -110 -66 callgsubr
          -85 -132 -76 callsubr
          -95 rrcurveto
          -137 1 105 -73 190 callsubr
          57 hvcurveto
          118 vlineto
          -17.020004272460938 -22 callsubr
          -50 234 callsubr
          -70 -56 18.990005493164062 -45 callsubr
          -2 hvcurveto
          -77 callsubr
          97 98 147 140.99000549316406 88.97999572753906 rrcurveto
          -37 callgsubr
          hlineto
          6 4 5 4 5 130 callgsubr
          -42 -11 callsubr
          rcurveline
          -32.99000549316406 -55.99000549316406 -152 -29 -76 hhcurveto
          -186 -149 -36 callsubr
          268 -12.990005493164062 hvcurveto
          7 0 6 -1 7 vhcurveto
          703 hlineto
          11 51 0 67.02000427246094 86 vvcurveto
          -205.99000549316406 -58 rmoveto
          -502 hlineto
          245.99000549316406 0 callgsubr
          113.00999450683594 -45 callsubr
          136.99000549316406 hhcurveto
          200 36 -169 -163 -10 hvcurveto
          endchar
        </CharString>
        <CharString name="equal">
          151 callsubr
          241.99000549316406 1116 rmoveto
          -167.02000427246094 915 236 callsubr
          -915 vlineto
          -517 vmoveto
          -166 915 166 -915 vlineto
          endchar
        </CharString>
        <CharString name="estimated">
          72 -99 callsubr
          127.97000122070312 514.010009765625 142 459 128.97999572753906 hstem
          104 277.99000549316406 626.989990234375 259.99000549316406 vstem
          1257.979995727539 625.9900054931641 rmoveto
          11 51 0 69 -45 callsubr
          vvcurveto
          -11 328.99000549316406 -235.99000549316406 200 -291 124 callgsubr
          rrcurveto
          -422.00999450683594 68 callgsubr
          -204.99000549316406 -286 -392 vvcurveto
          -430 228.99000549316406 -256.97999572753906 394.02000427246094 202 callgsubr
          196.02000427246094 44.99000549316406 60.99000549316406 85 vhcurveto
          -48 122 rlineto
          -37.99000549316406 -66 callgsubr
          -148 -62.02000427246094 -150 hhcurveto
          -153 -130.99000549316406 42 116 -82 hvcurveto
          356 875.9900054931641 vlineto
          -540 601 rmoveto
          146 -51 callgsubr
          -45.02000427246094 -66 callgsubr
          54.99000549316406 hvcurveto
          -346.99000549316406 -627 294.99000549316406 vlineto
          117 76 callsubr
          122 47 135 hhcurveto
          endchar
        </CharString>
        <CharString name="eth">
          -111 239 callgsubr
          150.97999572753906 865.9900054931641 164 344.0500030517578 -102 callgsubr
          107.00999450683594 43 hstem
          42 callsubr
          218 582 218.99000549316406 vstem
          674 1564 rmoveto
          -13 10 rlineto
          60.99000549316406 63 71 -21 callgsubr
          0 vvcurveto
          -117 183 callsubr
          rlineto
          0 -76 -56 callsubr
          -58 -63.02000427246094 vhcurveto
          -81 48 69 callsubr
          40 -97.02000427246094 30 -52 -124.99000549316406 rcurveline
          75 -7 callsubr
          72 -37 68 -22 callsubr
          -133 -143 rcurveline
          115 -44 callsubr
          134 149 117 -99 109 callsubr
          -127 54 168 callgsubr
          rlinecurve
          45 -54 -72 29 -88 hhcurveto
          -304.99000549316406 1 -206 -227 -375 vvcurveto
          -356.99000549316406 199 -227 313 130 callgsubr
          vhcurveto
          305 4 202 -6 callgsubr
          424 vvcurveto
          402 -158 334.99000549316406 -281.99000549316406 219.02000427246094 vhcurveto
          221 -1010.0200042724609 rmoveto
          -261 -109.02000427246094 -169 -169.99000549316406 -202.02000427246094 75 callgsubr
          185 252 251 -48 callsubr
          177.99000549316406 205 180 82 -70 callgsubr
          -62 13 vhcurveto
          9 -106 -4 -85.00999450683594 -104 vvcurveto
          endchar
        </CharString>
        <CharString name="exclam">
          128 callsubr
          hstemhm
          -11 callgsubr
          129 callsubr
          -259 222.02000427246094 hintmask 01010000
          181.99000549316406 139 callsubr
          hintmask 01100000
          -35 78 callgsubr
          hintmask 10100000
          81 -26 callgsubr
          -49 70 179 callsubr
          hhcurveto
          hintmask 01100000
          -82 -81 -70 callgsubr
          -95 93 callsubr
        </CharString>
        <CharString name="exclamdbl">
          85 -22 160 callgsubr
          hstemhm
          42 callgsubr
          129 callsubr
          -259.010009765625 222.02000427246094 425 129 callsubr
          -259.00001525878906 222 hintmask 10101000
          131 callsubr
          139 callsubr
          696.0099945068359 hmoveto
          28 -1274 rlineto
          195.99000549316406 hlineto
          24 1274 rlineto
          -248 hlineto
          hintmask 11010000
          -731.0099945068359 78 callgsubr
          81 -26 callgsubr
          -49 70 179 callsubr
          hhcurveto
          -82 -81 -70 callgsubr
          -95 -76 callsubr
          hvcurveto
          696.0099945068359 hmoveto
          -88 -22 callgsubr
          213 callgsubr
          -63.97999572753906 200 callgsubr
          hhcurveto
          -45 callsubr
          89 callsubr
          138 callgsubr
          -77 callsubr
          hvcurveto
          81 -3 109 callgsubr
          70 -96.00999450683594 hhcurveto
          -82 -81 -70 callgsubr
          -95 3 hvcurveto
          endchar
        </CharString>
        <CharString name="exclamdown">
          -699 1039.990005493164 326 hstemhm
          -11 callgsubr
          129 callsubr
          -270.97999572753906 221.97999572753906 hintmask 00000000
          hintmask 11000000
          454.97999572753906 1213.990005493164 rmoveto
          88 -77 callsubr
          168 callsubr
          64 -77 hhcurveto
          -86 181 callgsubr
          -76 -99 -22 callgsubr
          hvcurveto
          -81 3.0200042724609375 50 callsubr
          -70 109 callsubr
          hhcurveto
          82 81 79 95 -3 hvcurveto
          hintmask 10100000
          -35 -1649.990005493164 rmoveto
          -28 1273.979995727539 rlineto
          -196 hlineto
          -24 -1273.979995727539 rlineto
          158 callsubr
          hlineto
          endchar
        </CharString>
        <CharString name="f">
          -490 -1 callgsubr
          366.010009765625 -52 callgsubr
          hstem
          179 callgsubr
          vstem
          158 callsubr
          973.9900054931641 -98 callsubr
          endchar
        </CharString>
        <CharString name="f_f">
          321 -1 callgsubr
          366.010009765625 -52 callgsubr
          hstem
          179 callgsubr
          590.989990234375 220.00999450683594 vstem
          -84 callgsubr
          endchar
        </CharString>
        <CharString name="f_f_i">
          -96 callsubr
        </CharString>
        <CharString name="f_f_i_trk">
          927 77 callsubr
          590.989990234375 220.00999450683594 498 303 -264.989990234375 -95 callsubr
          hintmask 11011101
          -84 callgsubr
          hintmask 11101110
          718.0099945068359 508 rmoveto
          116 callgsubr
          83 76 callsubr
          64 92 21 callsubr
          vhcurveto
          hintmask 11011101
          38 162 callgsubr
        </CharString>
        <CharString name="f_f_l">
          934 -1 callgsubr
          366.010009765625 -52 callgsubr
          232 callsubr
          444.00999450683594 -95 callsubr
          590.9999847412109 -50 callsubr
          216 callsubr
          hmoveto
          -45 callgsubr
          282.00999450683594 166 -282.00999450683594 149 vlineto
          145 238 callgsubr
          -35 callgsubr
          42 callsubr
          89 42 -6 49 callgsubr
          41 vhcurveto
          174 vlineto
          8 242 callsubr
          -59 13.990005493164062 -7 callgsubr
          hhcurveto
          -182.99000549316406 -230 -101.99000549316406 -341 hvcurveto
          -99 vlineto
          -173 177 callgsubr
          173 vlineto
          -1474.990005493164 690.0200042724609 20 callgsubr
          endchar
        </CharString>
        <CharString name="f_i_trk">
          116 77 callsubr
          493.99998474121094 303 -260.989990234375 -95 callsubr
          hintmask 11011010
          158 callsubr
          973.9900054931641 -98 callsubr
          hintmask 11101100
          714 508 rmoveto
          -83 66 -52 75 83 76 callsubr
          64 92 21 callsubr
          vhcurveto
          hintmask 11011010
          42 162 callgsubr
        </CharString>
        <CharString name="ffi_dflt">
          -96 callsubr
        </CharString>
        <CharString name="fi">
          116 134 callgsubr
          150.99000549316406 302.97999572753906 -260.99000549316406 220.00999450683594 441.00001525878906 -95 callsubr
          hintmask 11010110
          -94 callgsubr
          hintmask 11101010
          -703 508 rmoveto
          -83 65.99000549316406 -52 75 83 79 -4 callgsubr
          75 callsubr
          -82.99000549316406 -69 -87 vhcurveto
          hintmask 11010110
          -72 callsubr
        </CharString>
        <CharString name="fi_trk">
          116 134 callgsubr
          150.99000549316406 302.97999572753906 -260.99000549316406 220.00999450683594 441.00001525878906 -95 callsubr
          hintmask 11010110
          -94 callgsubr
          hintmask 11101010
          -703 508 rmoveto
          -83 65.99000549316406 -52 75 83 79 -4 callgsubr
          75 callsubr
          -82.99000549316406 -69 -87 vhcurveto
          hintmask 11010110
          -72 callsubr
        </CharString>
        <CharString name="five">
          -74 -348.99000549316406 159 716.9800109863281 164 371 189.99000549316406 hstem
          855.9799957275391 224 vstem
          203.97999572753906 -335.99000549316406 rmoveto
          -11 35 56 -2 33 hhcurveto
          491.00999450683594 6 261 294.99000549316406 285 vvcurveto
          277 -157 177 -296 -70 -78 -11 -18 -81 vhcurveto
          39 400 rlineto
          578 hlineto
          22 189.99000549316406 rlineto
          -770.9900054931641 hlineto
          -56 -743 50 -30 rlineto
          31 98 93 17 76 callsubr
          hhcurveto
          228 98 -103 -201 -239.97999572753906 -246.99000549316406 -174 -341.00999450683594 1 hvcurveto
          -21 -55 callsubr
          169 callgsubr
          1 242 callsubr
          hvcurveto
          -1 -147.99000549316406 rlineto
          endchar
        </CharString>
        <CharString name="fl">
          123 -1 callgsubr
          366.010009765625 -52 callgsubr
          232 callsubr
          444.00999450683594 -50 callsubr
          -664 690.0200042724609 20 callgsubr
          endchar
        </CharString>
        <CharString name="florin">
          -132 971.9799957275391 168.00999450683594 366.9800109863281 178 -17.979995727539062 43 hstemhm
          216.99000549316406 840 -619.010009765625 218.5 hintmask 10110000
          421.99000549316406 971.9799957275391 rmoveto
          -112 -1327.979995727539 rlineto
          215 hlineto
          111 1327.979995727539 rlineto
          299 hlineto
          13 168.02000427246094 rlineto
          hintmask 11001000
          -299 hlineto
          76 callgsubr
          128 rlineto
          42 callgsubr
          22.020004272460938 87.99000549316406 51 105 hhcurveto
          -51 callgsubr
          55.99000549316406 -7.9900054931640625 -11 19 hvcurveto
          hintmask 10110000
          13 179 rlineto
          hintmask 11001000
          7 202 callsubr
          -46 11 35 callsubr
          hhcurveto
          -227 -195 -128 -353 -42.99000549316406 hvcurveto
          -8 -64 -209 -54 -8 69 callgsubr
          rlineto
          hintmask 10110000
          205 hlineto
          endchar
        </CharString>
        <CharString name="four">
          38 0 169.97999572753906 hstem
          819.9900054931641 87 callsubr
          1270.990005493164 169.97999572753906 rmoveto
          -231 433.00999450683594 -202 hlineto
          -17.990005493164062 -433.00999450683594 rlineto
          -460 hlineto
          110 callsubr
          151 466 894.0200042724609 -135.99000549316406 -36 callsubr
          rlineto
          -30 callsubr
          hlineto
          -583.9900054931641 -1194.990005493164 53.99000549316406 -104 rlineto
          650.0200042724609 -375.99000549316406 220 375.99000549316406 231 169.97999572753906 hlineto
          endchar
        </CharString>
        <CharString name="four.numr">
          -50 callgsubr
        </CharString>
        <CharString name="fraction">
          -275 0 43 1446.0299987792969 122 callsubr
          63 callsubr
          739 vstem
          63 callsubr
          hmoveto
          103 callsubr
          -538.9900054931641 -1530 rlineto
          endchar
        </CharString>
        <CharString name="franc">
          -208 0 426.97999572753906 -182.989990234375 182.99000549316406 246.00999450683594 178.99000549316406 491.00999450683594 178.99000549316406 hstemhm
          194.99000549316406 234 hintmask 10111000
          -9.990005493164062 426.99000549316406 rmoveto
          hintmask 01111000
          -182.99000549316406 204.97999572753906 vlineto
          hintmask 10111000
          -244 234 vlineto
          hintmask 01111000
          244 251 vlineto
          hintmask 10111000
          182.99000549316406 -251 246 484 179 -484 491.00999450683594 645 179 -879 -1095 -204.97999572753906 vlineto
          endchar
        </CharString>
        <CharString name="g">
          -89 callsubr
          -39 callgsubr
          428 41 callsubr
          hintmask 1111001010000000
          1186.979995727539 1147.990005493164 -98 callgsubr
        </CharString>
        <CharString name="gbreve">
          -89 callsubr
          152.010009765625 -31 callsubr
          -39 callgsubr
          -127.989990234375 50 callgsubr
          382.00999450683594 215 callsubr
          -130.00001525878906 41 callsubr
          hintmask 0000000000000000
          hintmask 1111010001100000
          596.9900054931641 1308 rmoveto
          -2 callsubr
          -1 hvcurveto
          67 callsubr
          hlineto
          84 callgsubr
          589.9900054931641 -160 -59 callgsubr
          hintmask 1110110100100000
          -93 callsubr
          hintmask 1111010010010000
          -84 callsubr
          hintmask 1111011000001000
          -97 callgsubr
          hintmask 1111010010010000
          -102 callsubr
          hintmask 1111010001100000
          175 vlineto
          hintmask 1110110100010000
          -61 callgsubr
          -69 callgsubr
          -181 35 callsubr
          -55 -146 hvcurveto
          -30 -530.9799957275391 rmoveto
          77 callgsubr
          hlineto
          hintmask 1111011000001000
          -90 callsubr
          hintmask 1110110100010000
          12 callsubr
        </CharString>
        <CharString name="gcaron">
          -89 callsubr
          497 43 -41.989990234375 43 -39 callgsubr
          428 41 callsubr
          hintmask 1111001010100000
          698.9799957275391 196 callgsubr
          hintmask 1111010010100000
          145 callgsubr
          hintmask 1111001010100000
          -134.97999572753906 56 -232.02000427246094 -222 -249 223 18 callgsubr
          488 -173 -59 callgsubr
          hintmask 1110101010100000
          -93 callsubr
          hintmask 1111001001100000
          -84 callsubr
          hintmask 1111001100010000
          -97 callgsubr
          hintmask 1111001001100000
          -102 callsubr
          hintmask 1111001010100000
          175 vlineto
          -61 callgsubr
          hvcurveto
          hintmask 1110101010100000
          -69 callgsubr
          vhcurveto
          hintmask 1111001010100000
          -29 callsubr
          hintmask 1111001100010000
          -90 callsubr
          hintmask 1111001010100000
          12 callsubr
        </CharString>
        <CharString name="gcircumflex">
          -89 callsubr
          -39 callgsubr
          428 41 callsubr
          hintmask 1111001010000000
          598 1515.990005493164 rmoveto
          -1 callsubr
          90 callsubr
          41 callgsubr
          rlineto
          588.9799957275391 -368 -98 callgsubr
        </CharString>
        <CharString name="gcommaaccent">
          -89 callsubr
          -39 callgsubr
          89.010009765625 42 callgsubr
          150.99998474121094 41 callsubr
          hintmask 1111001011000000
          567.9900054931641 1323.990005493164 rmoveto
          158 92 rlineto
          50 vlineto
          -41 9 -7 callsubr
          64 51 vvcurveto
          64 19.009994506835938 57 20 24 vhcurveto
          26.009994506835938 vlineto
          -75.02000427246094 41 rlineto
          -62 -28 69 callsubr
          -99 -139 vvcurveto
          -111 47.99000549316406 -78 49 -23 vhcurveto
          618.9900054931641 -176 -59 callgsubr
          hintmask 1110101011000000
          -93 callsubr
          hintmask 1111000111000000
          -84 callsubr
          hintmask 1111010010100000
          -97 callgsubr
          hintmask 1111000111000000
          -102 callsubr
          hintmask 1111001011000000
          175 vlineto
          -61 callgsubr
          hvcurveto
          hintmask 1110101011000000
          -69 callgsubr
          vhcurveto
          hintmask 1111001011000000
          -29 callsubr
          hintmask 1111010010100000
          -90 callsubr
          hintmask 1111001011000000
          12 callsubr
        </CharString>
        <CharString name="gdotaccent">
          -89 callsubr
          235 callsubr
          -39 callgsubr
          63 303 62 41 callsubr
          hintmask 1111010101100000
          585.9900054931641 235 callgsubr
          79 25 callsubr
          600.9900054931641 -199 -59 callgsubr
          hintmask 1110110101100000
          -93 callsubr
          hintmask 1111010011100000
          -84 callsubr
          hintmask 1111011001010000
          -97 callgsubr
          hintmask 1111010011100000
          -102 callsubr
          hintmask 1111010101100000
          175 vlineto
          -61 callgsubr
          hvcurveto
          hintmask 1110110101100000
          -69 callgsubr
          vhcurveto
          hintmask 1111010101100000
          -29 callsubr
          hintmask 1111011001010000
          -90 callsubr
          hintmask 1111010101100000
          12 callsubr
        </CharString>
</ttFont>
